<svg xmlns="http://www.w3.org/2000/svg" xmlns:xlink="http://www.w3.org/1999/xlink" viewBox="0 0 74 74.01"><defs><style>.cls-1{fill:#adadab;}.cls-2{fill:none;}</style><symbol id="apato" data-name="apato" viewBox="0 0 74 74.01"><path class="cls-1" d="M41.25,7h-30V67h19.5V18.94h10.5ZM21.75,58.94h-5v-5h5Zm0-7h-5v-5h5Zm0-7h-5v-5h5Zm0-7h-5v-5h5Zm0-7h-5v-5h5Zm0-7h-5v-5h5Zm0-7h-5v-5h5Zm7,42h-5v-5h5Zm0-7h-5v-5h5Zm0-7h-5v-5h5Zm0-7h-5v-5h5Zm0-7h-5v-5h5Zm0-7h-5v-5h5Zm0-7h-5v-5h5Zm7,0h-5v-5h5Z"/><path class="cls-1" d="M32.75,21.08V67h30V21.08Zm10.5,37.85h-5v-5h5Zm0-7h-5v-5h5Zm0-7h-5v-5h5Zm0-7h-5v-5h5Zm0-7h-5v-5h5Zm7,28h-5v-5h5Zm0-7h-5v-5h5Zm0-7h-5v-5h5Zm0-7h-5v-5h5Zm0-7h-5v-5h5Zm7,28h-5v-5h5Zm0-7h-5v-5h5Zm0-7h-5v-5h5Zm0-7h-5v-5h5Zm0-7h-5v-5h5Z"/><rect class="cls-2" width="74" height="74.01"/></symbol></defs><title>apato</title><g id="Layer_2" data-name="Layer 2"><g id="Layer_1-2" data-name="Layer 1"><use width="74" height="74.01" xlink:href="#apato"/></g></g></svg>