<svg xmlns="http://www.w3.org/2000/svg" xmlns:xlink="http://www.w3.org/1999/xlink" viewBox="0 0 74 74.01"><defs><style>.cls-1{fill:none;}.cls-2{fill:#adadab;}</style><symbol id="baths" data-name="baths" viewBox="0 0 74 74.01"><rect class="cls-1" width="74" height="74.01"/><path class="cls-2" d="M27.33,48.24H14.2a13.12,13.12,0,0,0,8.73,12.35,2.39,2.39,0,0,0-.13.75,2.41,2.41,0,0,0,4.83,0H45.92a2.42,2.42,0,1,0,4.79-.43,13.12,13.12,0,0,0,9.85-12.69H27.33Z"/><path class="cls-2" d="M15.87,43.37V17.25a4.31,4.31,0,0,1,4.58-4.58c.9,0,3.83.34,3.89,4.61a6.51,6.51,0,0,0-5.46,6.42H31.93a6.53,6.53,0,0,0-5.17-6.38c-.05-5.57-4-7.06-6.31-7.06-2.6,0-7,1.47-7,7V45.78h47.1V43.37Z"/></symbol></defs><title>baths</title><g id="Layer_2" data-name="Layer 2"><g id="Layer_1-2" data-name="Layer 1"><use width="74" height="74.01" xlink:href="#baths"/></g></g></svg>