<svg xmlns="http://www.w3.org/2000/svg" xmlns:xlink="http://www.w3.org/1999/xlink" viewBox="0 0 74 74.01"><defs><style>.cls-1{fill:#adadab;}.cls-2{fill:none;}</style><symbol id="beds" data-name="beds" viewBox="0 0 74 74.01"><polygon class="cls-1" points="8.6 53.05 13.24 53.05 13.24 57 17.19 57 17.19 53.05 56.24 53.05 56.24 57 60.19 57 60.19 53.05 65.4 53.05 65.4 48.83 8.6 48.83 8.6 53.05"/><path class="cls-1" d="M62.21,38.18H11.79c-3.1,0-3.19,3.58-3.19,3.58V46H65.4V41.75S65.31,38.18,62.21,38.18Z"/><path class="cls-1" d="M16.56,32.84s2-3.34,9.12-3.34,9.12,3.34,9.12,3.34v3h3.5v-3s2-3.34,9.12-3.34,9.12,3.34,9.12,3.34v3h4.33V24.77S55.56,17,36.55,17s-24.32,7.76-24.32,7.76V35.82h4.33Z"/><rect class="cls-2" width="74" height="74.01"/></symbol></defs><title>beds</title><g id="Layer_2" data-name="Layer 2"><g id="Layer_1-2" data-name="Layer 1"><use width="74" height="74.01" xlink:href="#beds"/></g></g></svg>