<svg xmlns="http://www.w3.org/2000/svg" viewBox="0 0 16.63 18.54"><defs><style>.cls-1{fill:#fff;}</style></defs><title>calculator_icon</title><g id="Layer_2" data-name="Layer 2"><g id="Layer_1-2" data-name="Layer 1"><path class="cls-1" d="M0,1.23V17.31a1.23,1.23,0,0,0,1.23,1.23H15.41a1.23,1.23,0,0,0,1.23-1.23V1.23A1.23,1.23,0,0,0,15.41,0H1.23A1.23,1.23,0,0,0,0,1.23ZM3.78,16.44H2.51a.38.38,0,0,1-.38-.38V14.8a.38.38,0,0,1,.38-.38H3.78a.38.38,0,0,1,.38.38v1.27A.38.38,0,0,1,3.78,16.44Zm0-3.26H2.51a.38.38,0,0,1-.38-.38V11.54a.38.38,0,0,1,.38-.38H3.78a.38.38,0,0,1,.38.38v1.27A.38.38,0,0,1,3.78,13.19Zm0-3.26H2.51a.38.38,0,0,1-.38-.38V8.28a.38.38,0,0,1,.38-.38H3.78a.38.38,0,0,1,.38.38V9.55A.38.38,0,0,1,3.78,9.93Zm3.15,6.51H5.66a.38.38,0,0,1-.38-.38V14.8a.38.38,0,0,1,.38-.38H6.93a.38.38,0,0,1,.38.38v1.27A.38.38,0,0,1,6.93,16.44Zm0-3.26H5.66a.38.38,0,0,1-.38-.38V11.54a.38.38,0,0,1,.38-.38H6.93a.38.38,0,0,1,.38.38v1.27A.38.38,0,0,1,6.93,13.19Zm0-3.26H5.66a.38.38,0,0,1-.38-.38V8.28a.38.38,0,0,1,.38-.38H6.93a.38.38,0,0,1,.38.38V9.55A.38.38,0,0,1,6.93,9.93Zm3.15,6.51H8.8a.38.38,0,0,1-.38-.38V14.8a.38.38,0,0,1,.38-.38h1.27a.38.38,0,0,1,.38.38v1.27A.38.38,0,0,1,10.07,16.44Zm0-3.26H8.8a.38.38,0,0,1-.38-.38V11.54a.38.38,0,0,1,.38-.38h1.27a.38.38,0,0,1,.38.38v1.27A.38.38,0,0,1,10.07,13.19Zm0-3.26H8.8a.38.38,0,0,1-.38-.38V8.28a.38.38,0,0,1,.38-.38h1.27a.38.38,0,0,1,.38.38V9.55A.38.38,0,0,1,10.07,9.93Zm4,6.51H12.85a.38.38,0,0,1-.38-.38V11.54a.38.38,0,0,1,.38-.38h1.27a.38.38,0,0,1,.38.38v4.52A.38.38,0,0,1,14.12,16.44Zm0-6.51H12.85a.38.38,0,0,1-.38-.38V8.28a.38.38,0,0,1,.38-.38h1.27a.38.38,0,0,1,.38.38V9.55A.38.38,0,0,1,14.12,9.93Zm.12-3.46H2.39a.26.26,0,0,1-.26-.26V2.35a.26.26,0,0,1,.26-.26H14.24a.26.26,0,0,1,.26.26V6.22A.26.26,0,0,1,14.24,6.47Z"/><path class="cls-1" d="M6.29,3.54l-.47.11L5.7,3.17l.77-.23h.4V5.64H6.29Z"/><path class="cls-1" d="M8.27,5.17l.89-.73c.33-.28.46-.42.46-.64a.33.33,0,0,0-.36-.35c-.21,0-.35.11-.55.36l-.41-.33a1.12,1.12,0,0,1,1-.55.82.82,0,0,1,.92.83h0c0,.45-.23.67-.7,1l-.44.34h1.17v.51h-2Z"/><path class="cls-1" d="M11.27,5.22l.41-.39a.82.82,0,0,0,.65.32.34.34,0,0,0,.38-.32h0c0-.22-.19-.34-.52-.34h-.24l-.09-.37.64-.64H11.43V3h1.81v.44l-.68.65a.74.74,0,0,1,.72.75h0a.87.87,0,0,1-1,.88A1.3,1.3,0,0,1,11.27,5.22Z"/></g></g></svg>