<svg xmlns="http://www.w3.org/2000/svg" viewBox="0 0 26.11 34.78"><defs><style>.cls-1{fill:#b3b3b3;}</style></defs><title>home_grey</title><g id="Layer_2" data-name="Layer 2"><g id="ARTWORK"><path class="cls-1" d="M23.62,0H2.49A2.49,2.49,0,0,0,0,2.48V19.87H0V32.29a2.49,2.49,0,0,0,2.49,2.49H23.62a2.48,2.48,0,0,0,2.49-2.49V19.87h0V2.48A2.49,2.49,0,0,0,23.62,0ZM19.93,5.22A1.87,1.87,0,0,1,21,3.87a1.94,1.94,0,0,1,.73-.14,2.22,2.22,0,0,1,.37,0l.35.11a1.94,1.94,0,0,1,.6.41,1.86,1.86,0,0,1,.54,1.31,1.84,1.84,0,0,1-1.14,1.72,2,2,0,0,1-.35.1,1.5,1.5,0,0,1-.37,0A1.94,1.94,0,0,1,21,7.31,1.87,1.87,0,0,1,19.93,6a1.64,1.64,0,0,1,0-.38A1.5,1.5,0,0,1,19.93,5.22ZM16.06,3.87a1.92,1.92,0,0,1,.72-.14l.19,0a1.84,1.84,0,0,1,1.36.8,1.88,1.88,0,0,1,.32,1,1.85,1.85,0,0,1-.32,1,1.81,1.81,0,0,1-1.36.8l-.19,0a1.92,1.92,0,0,1-.72-.14,1.87,1.87,0,0,1,0-3.44Zm-4.25-.14A1.86,1.86,0,1,1,10,5.59,1.87,1.87,0,0,1,11.81,3.73ZM3,4.28a2,2,0,0,1,.59-.41L4,3.76a2.43,2.43,0,0,1,.38,0,2,2,0,0,1,.73.14,1.89,1.89,0,0,1,1.1,1.35,2.21,2.21,0,0,1,0,.37,2.45,2.45,0,0,1,0,.38,1.89,1.89,0,0,1-1.1,1.34,2,2,0,0,1-.73.14,1.64,1.64,0,0,1-.38,0,2.3,2.3,0,0,1-.35-.1A2,2,0,0,1,3,6.91a1.86,1.86,0,0,1-.54-1.32A1.82,1.82,0,0,1,3,4.28ZM23,19.87a9.95,9.95,0,0,1-19.89,0h0A9.94,9.94,0,0,1,12,10a8.71,8.71,0,0,1,1-.05,9.94,9.94,0,0,1,10,9.93Zm-9.84-7.45A7.45,7.45,0,1,1,5.7,19.87,7.45,7.45,0,0,1,13.16,12.42Z"/></g></g></svg>