<svg xmlns="http://www.w3.org/2000/svg" viewBox="0 0 17 17"><defs><style>.cls-1{fill:#9e9e9e;}.cls-2{fill:none;}.cls-3{fill:#ccc;}.cls-4{fill:#e6e6e6;}</style></defs><title>company</title><g id="Layer_2" data-name="Layer 2"><g id="Layer_1-2" data-name="Layer 1"><g id="company_new_2" data-name="company new 2"><path class="cls-1" d="M14.86,4.3h-3.4V2.84A1,1,0,0,0,10.52,2H6.74a1,1,0,0,0-.94.85V4.3H2.4A1.44,1.44,0,0,0,1,5.6v8.34c0,.6.57,1,1.35,1H14.86A.94.94,0,0,0,16,13.92V5.58A1.19,1.19,0,0,0,14.86,4.3ZM6.55,2.84a.18.18,0,0,1,.17-.16H10.5a.19.19,0,0,1,.2.16V4.3H6.55Z"/><rect class="cls-2" width="17" height="17"/><path class="cls-3" d="M15,10.43V14a.37.37,0,0,1-.16,0H2.4A.94.94,0,0,1,2,13.92V10.43Z"/><path class="cls-4" d="M14.86,5.24H2.4A.54.54,0,0,0,2,5.6V9.48H15V5.6C15,5.43,14.93,5.24,14.86,5.24ZM9.56,9H7.88A.82.82,0,0,1,7.7,7.4H9.39A.82.82,0,0,1,9.56,9Z"/></g></g></g></svg>