<svg xmlns="http://www.w3.org/2000/svg" xmlns:xlink="http://www.w3.org/1999/xlink" viewBox="0 0 74 74.01"><defs><style>.cls-1{fill:none;}.cls-2{fill:#adadab;}</style><symbol id="couple" data-name="couple" viewBox="0 0 74 74.01"><g id="size"><rect class="cls-1" width="74" height="74.01"/></g><circle class="cls-2" cx="47.39" cy="21.83" r="9.82"/><path class="cls-2" d="M62.44,62h8S67,54.59,62.68,44.95c-2.76-6.09-5.45-9.41-10.13-9.41H41.69c2,1.39,3.74,3.86,3.74,8.3V62H57.21l-3-17a14.23,14.23,0,0,1,2,2.94Z"/><circle class="cls-2" cx="23.62" cy="21.83" r="9.82"/><path class="cls-2" d="M33.44,35.53H13s-9.41-.64-9.41,9.41V62H10V48c0-3.58.94-4.93,2.64-5.44V62H33.44V42.45c1.9.44,3,1.74,3,5.53V62h6.46V44.95C42.85,34.89,33.44,35.53,33.44,35.53Z"/></symbol></defs><title>couple</title><g id="Layer_2" data-name="Layer 2"><g id="Layer_1-2" data-name="Layer 1"><use width="74" height="74.01" xlink:href="#couple"/></g></g></svg>