<?xml version="1.0" encoding="utf-8"?>
<!-- Generator: Adobe Illustrator 19.1.0, SVG Export Plug-In . SVG Version: 6.00 Build 0)  -->
<svg version="1.1" id="Layer_1" xmlns="http://www.w3.org/2000/svg" xmlns:xlink="http://www.w3.org/1999/xlink" x="0px" y="0px"
	 viewBox="-286 446 66 69" style="enable-background:new -286 446 66 69;" xml:space="preserve">
<style type="text/css">
	.st0{fill:#004281;}
	.st1{fill:#FFF100;}
</style>
<g>
	<path class="st0" d="M-234.3317719,499.2931213c0,0,6.684494,1.5128479,10.8490906,6.8152466h-3.7857971l0.3806152,5.5489502
		c0,0-5.0484009-5.6781921-10.7246857-7.5686646L-234.3317719,499.2931213z"/>
	<path class="st1" d="M-227.0400391,511.7911072c-0.0135193,0-5.0363617-5.6519165-10.6367798-7.510437l-0.2551422-0.086792
		l3.4322357-5.016449l0.0781403-0.1138611l0.1334076,0.030426c0.0187683,0.0082397,6.7419891,1.5210876,10.964447,6.8870239
		l0.2581482,0.3283997h-3.986084l0.4069519,5.9288635L-227.0400391,511.7911072z M-227.1305847,511.1000671l-0.3566132-5.1957092
		h3.5799103c-3.7730408-4.5509033-9.4038849-6.1460266-10.3369141-6.3823547l-3.0512085,4.4599609
		C-232.5900879,505.6495972-228.4014435,509.7705994-227.1305847,511.1000671"/>
	<path class="st0" d="M-271.4626465,499.2931213c0,0-6.6860046,1.5128479-10.8513489,6.8152466h3.7873535l-0.3825684,5.5489502
		c0,0,5.0484314-5.6781921,10.7251282-7.5686646L-271.4626465,499.2931213z"/>
	<path class="st1" d="M-278.7453613,506.3098145h-3.9857483l0.2562561-0.3287964
		c4.2243958-5.3659363,10.9483337-6.8787842,10.9667358-6.8870239l0.1348877-0.0300903l3.5089111,5.1318359l-0.2558899,0.0849304
		c-5.6022949,1.8585205-10.6319275,7.4980469-10.6367798,7.510437l-0.3972168,0.4460754L-278.7453613,506.3098145z
		 M-278.3106079,505.9043579l-0.3569641,5.1957092c1.2708435-1.3309631,5.459137-5.4508667,10.1659546-7.118103
		l-3.0474548-4.4573364c-0.9262695,0.2472534-6.567627,1.8295898-10.3414307,6.3797302H-278.3106079z M-271.6309814,499.40625
		l0.1672363-0.1123657L-271.6309814,499.40625z"/>
	<path class="st1" d="M-252.8983154,514.4053345c1.6916962-1.8190918,6.4413452-3.3018799,9.1712799-4.394989
		c5.7815247-2.3135681,13.0289307-4.8995972,14.7600708-17.6425476c0.3156433-2.3083191,0.937912-12.3627014,2.2857666-21.0141296
		c2.2523651-14.4564514,6.1809845-19.0633545,6.1809845-19.0633545
		c-21.1123657,11.3233643-32.3981018-5.4966736-32.3981018-5.4966736s-11.2857666,16.8200378-32.3981628,5.4966736
		c0,0,3.9286499,4.6069031,6.180603,19.0633545c1.3460083,8.6514282,1.971283,18.7058105,2.2843018,21.0141296
		c1.7318726,12.7429504,8.9789124,15.3289795,14.7585449,17.6425476
		C-259.339325,511.1034546-254.5904083,512.5862427-252.8983154,514.4053345"/>
	<path class="st0" d="M-253.0467682,514.5421143c-1.609024-1.7473145-6.3605499-3.2552795-9.1021576-4.3450317
		c-5.7717285-2.2947693-13.1562805-4.9743652-14.8844604-17.8018494
		c-0.3141479-2.3301392-0.9390259-12.3687439-2.2823792-21.0100098c-1.1239319-7.214325-2.6656799-11.9641724-3.9207153-14.9062195
		c-1.2573242-2.9405518-2.2121582-4.0545044-2.2147827-4.0571594c-0.0634766-0.0762634-0.065033-0.1839294-0.0041199-0.2596436
		c0.061615-0.0747681,0.167572-0.0982971,0.2547607-0.0509033c5.2904053,2.8370056,9.9502563,3.8936462,13.9608154,3.8936462
		c5.9573669,0,10.4981384-2.330658,13.556488-4.6651001c3.0560913-2.3351746,4.6124878-4.6548157,4.6154938-4.6593323
		c0.0375977-0.0568848,0.1014709-0.0905151,0.1695099-0.0905151c0.0676422,0,0.1300049,0.0336304,0.1687164,0.0905151
		c0.0063934,0,1.5579071,2.3241577,4.6140289,4.6578064c3.0572205,2.335968,7.5979767,4.666626,13.5557251,4.666626
		c4.0097961,0,8.6696625-1.0566406,13.9634399-3.8936462c0.0848999-0.0473938,0.1931458-0.0238647,0.2536469,0.0509033
		c0.0623627,0.0757141,0.0597382,0.1854553-0.0034027,0.2596436c0.0034027,0.0058594-0.9562988,1.1166077-2.214386,4.0571594
		c-1.2550507,2.9420471-2.7971802,7.6918945-3.9207153,14.9062195c-1.3452454,8.6412659-1.9686279,18.6798706-2.2854309,21.0100098
		c-1.727356,12.8274841-9.1130524,15.5070801-14.8855438,17.8018494c-2.737854,1.0897522-7.4901276,2.5977173-9.0984039,4.3450317
		c-0.0383301,0.0420532-0.0920868,0.0657349-0.1476746,0.0657349
		C-252.9546967,514.6078491-253.0099487,514.5841675-253.0467682,514.5421143 M-252.8983154,514.4053345l0.1476746-0.1383057
		L-252.8983154,514.4053345z M-278.9155884,471.3224487c1.3475037,8.6591492,1.9735413,18.7279663,2.2843018,21.0175171
		c1.7364197,12.6576538,8.8443604,15.149353,14.6341858,17.4813843c2.6524963,1.0682678,7.219574,2.4770508,9.0987854,4.2946167
		c1.8773193-1.8175659,6.4458466-3.2263489,9.0950165-4.2946167c5.7909088-2.3320312,12.8985291-4.8237305,14.6337891-17.4813843
		c0.3141785-2.2895508,0.9383087-12.3583679,2.2876892-21.0175171c1.7747345-11.3935547,4.5918579-16.6995544,5.7277679-18.4626465
		c-5.0360107,2.572113-9.5162354,3.5498657-13.4057922,3.5498657c-11.0076904-0.0056458-17.2589264-7.7995605-18.3384705-9.2671204
		c-1.0818329,1.4675598-7.3338318,9.2614746-18.3414917,9.2671204c-3.891449,0.0024109-8.3690491-0.9777527-13.4035645-3.549469
		C-283.5074158,454.6228943-280.6899414,459.928894-278.9155884,471.3224487"/>
	<path class="st0" d="M-232.6426849,491.7763367c-0.536972,6.8671265-2.9189758,11.203064-13.0615997,14.8934326
		c-0.9255219,0.2991333-4.7572021,1.4884338-7.2064209,1.4884338c-2.5360718,0-6.5300903-1.276886-7.2609558-1.5169678
		c-10.074646-3.6839905-12.4464417-8.0166016-12.9822998-14.8648987
		c-1.5079651-19.2812805-3.8523254-28.6930847-4.7440491-31.7213745c-0.0691223-0.305481-0.1472778-1.0574036,0.8139038-0.8569336
		c16.0718994,3.4854126,24.185791-6.9379578,24.185791-6.9379578s8.1119995,10.4168091,24.1759949,6.9401855
		c0.9503021-0.2049561,0.8992004,0.5099182,0.8319397,0.8286133
		C-228.7756805,463.0315857-231.1306,472.4400024-232.6426849,491.7763367 M-252.8983154,449.7197266
		c0,0-9.5872803,13.2415771-28.4401855,6.3850098c0,0,4.1281738,5.8348999,6.2253113,34.6100464
		c0.6136169,8.4092712,3.4747009,13.9612122,15.3154297,18.030365c1.9389648,0.6669922,5.0285034,1.6740417,6.8994446,3.1481323
		c1.8705444-1.4740906,4.9589691-2.4811401,6.8993988-3.1481323c11.8411407-4.0691528,14.7018585-9.6210938,15.315094-18.030365
		c2.096756-28.7751465,6.2275543-34.6100464,6.2275543-34.6100464
		C-243.3099365,462.9613037-252.8983154,449.7197266-252.8983154,449.7197266"/>
	<path class="st0" d="M-252.9107056,500.3716125h0.0037231c9.7887115,0,16.2451172,1.765686,22.8052063,3.4277344
		c0,0,0.3404694,0.1074524,0.5704041,0.0368042c0.2810974-0.0999756,0.3727875-0.3517151,0.3727875-0.3517151l1.545517-4.9807739
		c0,0,0.1912384-0.3208923,0.0909271-0.5940857c-0.0792999-0.2066956-0.3070221-0.3129883-0.5929565-0.4024658
		c-6.7077789-2.0396118-13.5767822-3.6573181-24.7918854-3.6573181h-0.0037231h0.0093842h-0.005661
		c-11.214325,0-18.083313,1.6177063-24.7881165,3.6573181c-0.2874756,0.0894775-0.5159302,0.1957703-0.5940552,0.4024658
		c-0.0999756,0.2731934,0.0897827,0.5940857,0.0897827,0.5940857l1.5451355,4.9807739c0,0,0.0928345,0.2517395,0.3720093,0.3517151
		c0.231842,0.0706482,0.5708008-0.0368042,0.5708008-0.0368042c6.5604858-1.6620483,13.0180054-3.4277344,22.8044434-3.4277344
		h0.005661H-252.9107056z"/>
	<path class="st1" d="M-230.1539764,504.0029907c-6.5635376-1.6635437-12.9913483-3.4217224-22.7526245-3.4236145
		c-9.7631378,0.0018921-16.1890717,1.7600708-22.7439423,3.4202271c-0.0108948,0.0011292-0.2138367,0.0679932-0.4464417,0.0679932
		c-0.0755005,0-0.1600647-0.0048828-0.2554932-0.0353088c-0.3764954-0.1386414-0.4892273-0.4542847-0.5009155-0.4858704
		l-1.5267334-4.9364319c-0.0063782-0.0180054-0.1457825-0.2341003-0.1488037-0.5286865
		c0-0.0792847,0.0120544-0.1623535,0.0428772-0.2476196c0.1303711-0.3216858,0.4358826-0.4317627,0.7297058-0.5275879
		c6.7134399-2.0434265,13.6128845-3.6670837,24.8456421-3.6670837h0.0041046h0.0056305
		c11.2290192,0,18.1292114,1.6236572,24.8478699,3.6670837c0.2919769,0.0958252,0.5952148,0.2081909,0.7278595,0.5324707
		c0.0281982,0.0826721,0.0398254,0.1660767,0.0398254,0.2427368c-0.0045013,0.2757874-0.1243744,0.4836121-0.1288605,0.4858704
		l-1.5493011,4.9890137c-0.0090027,0.0218201-0.1217499,0.3374634-0.5140381,0.4809875
		c-0.0800323,0.0214233-0.1597137,0.0319214-0.2393646,0.0319214
		C-229.9525909,504.0675964-230.1539764,504.0007324-230.1539764,504.0029907 M-229.71698,503.6489868
		c0.0443268,0,0.0920868-0.0056152,0.1157379-0.0108948c0.1841278-0.0608521,0.246109-0.2247009,0.243103-0.2156677
		l1.5639496-5.0258484c-0.0048828-0.0030212,0.0928345-0.1694946,0.0898132-0.3152771
		c0-0.0368347-0.0063782-0.0736694-0.0150452-0.0973206c-0.0270386-0.0942993-0.1777344-0.1916504-0.4573059-0.27771
		c-6.6995239-2.0354919-13.5361938-3.6471558-24.7298737-3.6471558c-11.1963043,0-18.0303497,1.6116638-24.7272491,3.6471558
		c-0.2814026,0.0860596-0.4336548,0.1834106-0.4599304,0.2754517c-0.0108948,0.0289307-0.0161438,0.0627441-0.0161438,0.0995789
		c-0.0030212,0.14505,0.0886841,0.3152771,0.1097412,0.3599854l1.5424805,4.9702454
		c0.0116577-0.0037537,0.0631409,0.1664734,0.2359924,0.2232056c0.0281982,0.0086365,0.0714111,0.0142517,0.1247253,0.0142517
		c0.1525879,0,0.3231812-0.0495911,0.3340759-0.0537109c6.5552063-1.6604919,13.0417175-3.4348755,22.8522034-3.4341125h0.0097351
		c9.8074799-0.0007629,16.2950897,1.7736206,22.8604584,3.4382324h0.0003815
		C-230.0285034,503.5993958-229.865387,503.6489868-229.71698,503.6489868 M-252.9107056,500.5793762v-0.2089233V500.5793762z"/>
	<path class="st0" d="M-260.2998047,477.6997986h2.6934814l-0.0014954-7.5466919h-6.9993591v2.6976013h2.8227234
		c-0.0443115,0.1004944-0.0909119,0.1993713-0.1397705,0.295166c-0.2731628,0.5646057-0.6489563,1.0694275-1.1133728,1.4891663
		c-0.4160156,0.3785706-0.9165039,0.6538086-1.4572144,0.8056335c-0.5185852,0.1362305-1.0600586,0.1362305-1.5782471,0
		c-0.5410767-0.151825-1.038208-0.427063-1.455719-0.8056335c-0.4629211-0.4197388-0.839447-0.9245605-1.1133728-1.4891663
		c-0.3032227-0.6102295-0.5042725-1.2655945-0.6045837-1.9393005c-0.1018677-0.6983948-0.1018677-1.4067078,0-2.1035461
		c0.1003113-0.6769409,0.3013611-1.3309631,0.6045837-1.9427185c0.2739258-0.5623474,0.6504517-1.0646973,1.1133728-1.4853821
		c0.417511-0.3819885,0.9146423-0.6572266,1.455719-0.8060303c0.5181885-0.1390381,1.0596619-0.1390381,1.5782471,0
		c0.5407104,0.1488037,1.0411987,0.4240417,1.4572144,0.8060303c0.4644165,0.4206848,0.84021,0.9230347,1.1133728,1.4853821
		c0.1131287,0.2295837,0.2127075,0.4648438,0.2957458,0.7047424h3.3991699
		c-1.0179443-3.1954956-4.0229492-5.3360596-7.3774109-5.2541199c-3.3522034,0.0862122-6.2456055,2.3718262-7.1011963,5.6167603
		c-0.8597717,3.2432251,0.5271912,6.6621094,3.4017944,8.3908081c2.8738403,1.7293091,6.5420532,1.3540955,9.0063171-0.9223022
		V477.6997986z"/>
	<path class="st0" d="M-236.3586121,474.2051392c-0.0372162,0.3336792-0.1672363,0.6504822-0.3697815,0.9155579
		c-0.1864014,0.2269897-0.445282,0.3735046-0.7308655,0.4178772c-0.3351898,0.0385132-0.6737518-0.0146484-0.9792328-0.1504822
		c-0.3953247-0.1732483-0.7582855-0.4064026-1.0780945-0.6938782c-0.3798981-0.3338318-0.7203064-0.7149048-1.010437-1.1288147
		c-0.3099823-0.437561-0.5745239-0.9031067-0.7917328-1.395752c-0.2028809-0.462738-0.3562317-0.9476929-0.4505463-1.444458
		c-0.0819244-0.4230957-0.0973053-0.8555908-0.0413055-1.2800598c0.0368042-0.3347778,0.1657104-0.65271,0.3708801-0.9185486
		c0.1860046-0.2250671,0.4448853-0.3752136,0.7346191-0.4137268c0.330658-0.0426331,0.6699829,0.0112915,0.9769745,0.1493835
		c0.394165,0.1689148,0.7571716,0.402832,1.0754395,0.691803c0.3802643,0.3363037,0.719223,0.7145081,1.008194,1.1312256
		c0.3148804,0.4356995,0.576416,0.9024048,0.7939758,1.3933411c0.2070465,0.4633179,0.3577271,0.9490051,0.4513092,1.4483948
		C-236.314682,473.346344-236.3011322,473.7785034-236.3586121,474.2051392 M-238.9055786,465.8423462
		c-3.2744293-0.06073-5.9788208,2.5454102-6.0381775,5.8198547c-0.06427,3.2783508,2.5431824,5.9821472,5.8198547,6.0419006
		c3.2740479,0.0623779,5.9754181-2.5462036,6.0392914-5.8202515
		C-233.0274658,468.6069946-235.6319275,465.9031982-238.9055786,465.8423462"/>
	<path class="st0" d="M-248.6134949,474.2051392c-0.0379333,0.3336792-0.1660614,0.6504822-0.3727264,0.9155579
		c-0.1841278,0.2269897-0.442276,0.3735046-0.7297516,0.4178772c-0.3347931,0.0385132-0.6741333-0.0146484-0.9803925-0.1504822
		c-0.39151-0.1732483-0.7586365-0.4064026-1.0758209-0.6938782c-0.3802338-0.3338318-0.7184601-0.7149048-1.0096588-1.1288147
		c-0.3137665-0.437561-0.5760651-0.9031067-0.7917328-1.395752c-0.2055511-0.462738-0.3539734-0.9476929-0.4501648-1.444458
		c-0.0845642-0.4230957-0.0965729-0.8555908-0.0428619-1.2800598c0.0368195-0.3347778,0.1676178-0.65271,0.3746643-0.9185486
		c0.1822357-0.2250671,0.4418793-0.3752136,0.7274628-0.4137268c0.3340759-0.0426331,0.6744995,0.0112915,0.9785156,0.1493835
		c0.3960571,0.1689148,0.7583008,0.402832,1.0769348,0.691803c0.380661,0.3363037,0.7176971,0.7145081,1.013443,1.1312256
		c0.3100281,0.4356995,0.574173,0.9024048,0.7883453,1.3933411c0.2059326,0.4633179,0.3581238,0.9508667,0.4524231,1.4483948
		C-248.5721588,473.346344-248.5586243,473.7785034-248.6134949,474.2051392 M-251.1630554,465.8423462
		c-3.2736664-0.06073-5.9784241,2.5454102-6.0378113,5.8198547c-0.0627136,3.2783508,2.5435791,5.9821472,5.8202515,6.0419006
		c3.2740479,0.0623779,5.9776917-2.5462036,6.038559-5.8202515
		C-245.2826843,468.6069946-247.8863525,465.9031982-251.1630554,465.8423462"/>
	<path class="st0" d="M-273.6849365,468.0339966c0,0-8.0879517-4.9522705,7.8459778-7.5183411
		c11.6494904-1.8762207,12.1732941-5.5198059,12.1732941-5.5198059s0.1533356,3.5823364-9.9254608,5.6464233
		C-271.3085632,462.222168-276.1540833,463.1456604-273.6849365,468.0339966"/>
	<path class="st0" d="M-232.1170044,468.0339966c0,0,8.0864868-4.9522705-7.8482361-7.5183411
		c-11.6490936-1.8762207-12.1706696-5.5198059-12.1706696-5.5198059s-0.1555634,3.5823364,9.9228363,5.6464233
		C-234.4948425,462.222168-229.6493378,463.1456604-232.1170044,468.0339966"/>
	<path class="st0" d="M-264.8408813,504.0860291c0,0,1.8641357-0.6944275,3.2240601,0.6853943
		C-261.6168213,504.7714233-262.3710022,502.6054993-264.8408813,504.0860291"/>
	<path class="st0" d="M-265.4143372,503.3844604c0,0,4.3213196-3.2293091,9.6165924,2.1400146
		C-255.7977448,505.5244751-260.4117737,499.5392761-265.4143372,503.3844604"/>
	<path class="st0" d="M-265.4703369,502.7746277c0,0,1.0157166-1.2686157,2.8873901-1.0863647
		C-262.5829468,501.6882629-264.5004883,500.796936-265.4703369,502.7746277"/>
	<path class="st0" d="M-264.9930725,503.5486755c0,0,2.3793335-1.1757812,4.5354919,0.1217651
		c0.2979736,0.1810913,1.2167053,0.9021912,2.2590942,1.0051575c0.803009,0.0823059,1.1828918-0.3825073,1.2745972-0.7789612
		c0.1852417-0.8052673-0.6809082-1.2805786-0.8293152-1.3444824c-0.3554688-0.1457825-0.8443298-0.2694092-1.1205444-0.2487488
		c0,0,0.6384277-0.0932007,1.400116,0.2641602c0,0,0.9995117,0.4749756,0.7549133,1.4508362
		c-0.165741,0.6496887-0.7883911,1.0292053-1.6278381,0.952179c-1.0987549-0.0973206-1.9641113-0.8612671-2.3710632-1.0994873
		C-261.18396,503.5993958-262.5975952,502.7513123-264.9930725,503.5486755"/>
	<path class="st0" d="M-240.9557495,504.0860291c0,0-1.864151-0.6944275-3.2225647,0.6853943
		C-244.1783142,504.7714233-243.425293,502.6054993-240.9557495,504.0860291"/>
	<path class="st0" d="M-240.3823547,503.3844604c0,0-4.3197632-3.2293091-9.6154327,2.1400146
		C-249.9977875,505.5244751-245.3849182,499.5392761-240.3823547,503.3844604"/>
	<path class="st0" d="M-240.3274841,502.7746277c0,0-1.0145569-1.2686157-2.8873749-1.0863647
		C-243.214859,501.6882629-241.2954407,500.796936-240.3274841,502.7746277"/>
	<path class="st0" d="M-240.8016815,503.5486755c0,0-2.3808441-1.1757812-4.5377655,0.1217651
		c-0.2972412,0.1810913-1.2159424,0.9021912-2.2594757,1.0051575c-0.8026276,0.0823059-1.1821442-0.3825073-1.2719421-0.7789612
		c-0.1867676-0.8052673,0.6786041-1.2805786,0.8274384-1.3444824c0.3546906-0.1457825,0.8443298-0.2694092,1.1201477-0.2487488
		c0,0-0.6365509-0.0932007-1.400116,0.2641602c0,0-0.9980164,0.4749756-0.7541504,1.4508362
		c0.1656952,0.6496887,0.786087,1.0292053,1.625946,0.952179c1.1002197-0.0973206,1.9671326-0.8612671,2.3725891-1.0994873
		C-244.6138153,503.5993958-243.1987,502.7513123-240.8016815,503.5486755"/>
	<path class="st1" d="M-274.2331543,499.5482788l-0.1225281,0.0522461c-0.1209717-0.1965332-0.2468567-0.327301-0.3783875-0.3915405
		c-0.1326294-0.065033-0.2671509-0.0781555-0.4042969-0.0375977c-0.202179,0.0574951-0.3366699,0.1931458-0.4006042,0.4073181
		c-0.0675964,0.2179565-0.0544739,0.4855042,0.0368347,0.8082886c0.0992432,0.3464661,0.2277222,0.5952148,0.3878174,0.7421265
		c0.1585693,0.1484375,0.3408203,0.1912842,0.5470886,0.1330261c0.1296387-0.0360413,0.2296143-0.1104736,0.3036194-0.2183228
		c0.0751648-0.1082153,0.1292725-0.2867126,0.1672363-0.5380859l0.1273804-0.010498l0.1093445,0.51474
		c-0.047699,0.0560303-0.0984802,0.1067505-0.1495667,0.1518555c-0.0526123,0.0484619-0.105957,0.0883179-0.1619568,0.1247559
		c-0.056366,0.0368042-0.1112061,0.0672607-0.1641846,0.0913086c-0.056366,0.0263062-0.1168518,0.0473022-0.1826172,0.0672607
		c-0.310791,0.086792-0.5933533,0.0462036-0.8500061-0.1232605c-0.255127-0.1676025-0.4355164-0.4317627-0.5392151-0.795105
		c-0.0522156-0.1856384-0.0725403-0.3607483-0.0593872-0.5253296c0.008667-0.1676025,0.0552673-0.3314514,0.1375427-0.4919128
		c0.0582581-0.1164551,0.1416626-0.2198181,0.2480164-0.3096313c0.1066895-0.0894165,0.2277222-0.1536865,0.3614807-0.1912231
		c0.0777893-0.0214233,0.1664429-0.0368347,0.2637939-0.0458679c0.0913086-0.0029907,0.1901245,0,0.2923279,0.0165405
		l0.092804-0.0439758l0.0420837-0.0146179c0.0161743-0.0048828,0.0372314,0.0048828,0.0620117,0.0285339
		c0.0259094,0.0225525,0.0466003,0.0593872,0.0616455,0.1142578l0.0048828,0.0172729L-274.2331543,499.5482788z"/>
	<path class="st1" d="M-273.1182556,499.9131775c0.0462036-0.0116577,0.0958252-0.0263367,0.1480408-0.0409851
		c0.0510864-0.014679,0.1165161-0.0368347,0.1953735-0.0631104c-0.0131531-0.0252075-0.0262756-0.0466003-0.0379333-0.0672913
		c-0.0127563-0.0184021-0.0296936-0.0462036-0.0518494-0.0796509l-0.3502197-0.5346985l-0.0101318,0.1149597l-0.0481262,0.6929321
		l0.0068054,0.0157776L-273.1182556,499.9131775z M-271.583252,500.6177063l-0.874054,0.2232056l-0.0428162-0.1638184
		c0.0623474-0.0150146,0.1048279-0.0274658,0.1289062-0.0353394c0.0236511-0.008606,0.0465698-0.0195312,0.0702515-0.0334473
		c0.0202637-0.0119934,0.0323181-0.0210266,0.0323181-0.0210266l-0.0154419-0.0334473
		c-0.0134888-0.030426-0.0281677-0.0510864-0.0405579-0.0638733l-0.2532959-0.3919373
		c-0.0026245-0.0007324-0.008606-0.0108948-0.0134888-0.0285645c-0.0402222-0.0585938-0.0838318-0.0819092-0.1353149-0.0679932
		l-0.4918518,0.1247559c-0.0499878,0.0119934-0.0759277,0.0751648-0.0819397,0.1901245
		c-0.0010986,0.0315552-0.002594,0.0597534-0.002594,0.0856934l-0.0079041,0.1841125l-0.0060425,0.1288757l0.0071716,0.0683899
		c0.0067749,0.0150146,0.0240479,0.0289612,0.0529785,0.0364685c0.0319519,0.011261,0.1176147,0.0078735,0.257782-0.0131836
		l0.039093,0.1623535l-0.708313,0.1796265l-0.0406189-0.1630859c0.0717773-0.0195312,0.1243896-0.0635376,0.1600952-0.1341858
		c0.0330505-0.0690918,0.0559692-0.1686707,0.0683594-0.302063l0.1300354-1.601532l0.0086365-0.1277771
		c0.0075073-0.0969238,0.0202942-0.1743469,0.0379639-0.2314453c0.0173035-0.0545044,0.0353088-0.0849304,0.0499573-0.0894165
		c0.0154419-0.0033875,0.0346069,0.0044861,0.0597839,0.0209961c0.0229187,0.0169373,0.0447083,0.0383606,0.0649719,0.0639038
		c0.0203247,0.0259094,0.0507507,0.0687866,0.0913086,0.1266479c0.0387268,0.0574951,0.0935974,0.13974,0.1627197,0.2445984
		l0.8503418,1.2731018c0.0875854,0.1337891,0.151062,0.2096558,0.1856689,0.2311096
		c0.0401917,0.0213928,0.0894165,0.0259094,0.1521606,0.0093689l0.0623779-0.0153809L-271.583252,500.6177063z"/>
	<path class="st1" d="M-270.6889648,498.5856018c-0.0353088-0.1578369-0.1018066-0.2709351-0.1991577-0.3378601
		c-0.0961914-0.0661011-0.2182922-0.0845337-0.3633423-0.0499268c-0.0372009,0.0071106-0.06427,0.0161133-0.0804138,0.0206604
		c-0.0131836,0.0071106-0.0244141,0.0168762-0.0323486,0.0307617c-0.0097046,0.0165405-0.0138855,0.036499-0.0097046,0.065033
		c0.0044861,0.0266724,0.0082092,0.0488281,0.0127563,0.0661621l0.1822205,0.8089905l0.0052795,0.0240479
		c0.005249,0.0018921,0.0247803,0,0.06427-0.0033875c0.0913086-0.0206604,0.1664429-0.0480957,0.2280579-0.0856323
		c0.0608826-0.0353394,0.1093445-0.0808105,0.1454468-0.1371765
		C-270.6667786,498.8880615-270.6513672,498.7546692-270.6889648,498.5856018 M-269.5819397,500.1667786l-0.3990479,0.0886841
		c-0.0458679,0.0120544-0.0808105,0.0112915-0.1052551-0.0014954c-0.0236511-0.0075073-0.058197-0.036438-0.1047974-0.0879211
		l-0.1585693-0.1717224l-0.2228394-0.2668152l-0.0409851-0.0454407c-0.0649719-0.0759277-0.122467-0.1412964-0.1687012-0.1957703
		c-0.0488586-0.0518799-0.0834351-0.0898132-0.1033325-0.1116333c-0.0029907-0.0026245-0.0082703-0.005249-0.0169373-0.008606
		c-0.0074768,0-0.019165-0.0015259-0.0289307-0.0030212c-0.0116272-0.0018921-0.0383301,0.0014954-0.0834045,0.0101318
		l-0.0593567,0.0184326l-0.0428467,0.0093689l0.1236267,0.5565186c0.0214233,0.0886841,0.0417175,0.1551819,0.0612488,0.2010498
		c0.0187683,0.04245,0.0327148,0.0683899,0.0436096,0.0740051c0.0056152,0.0116577,0.0243835,0.0173035,0.0544739,0.0173035
		c0.0281677,0,0.1011047-0.0063782,0.2198181-0.019928l0.0360718,0.1615906l-0.1998901,0.0420837l-0.2638245,0.0544739
		l-0.260376,0.0631409l-0.202179,0.0526123l-0.0368042-0.1642151c0.1089783-0.0244446,0.1751099-0.0608826,0.1965027-0.1078186
		c0.0101624-0.0184326,0.0120544-0.0533752,0.0078735-0.1003723c-0.0044861-0.0473328-0.0131226-0.103302-0.0274353-0.1705627
		l-0.3035889-1.3399963l-0.0090332-0.0409546c-0.0198975-0.0879211-0.0394287-0.1612244-0.0582275-0.2160645l-0.0383301-0.0898132
		c-0.0176392-0.0135193-0.0398254-0.0210266-0.067627-0.0240479c-0.0289307-0.0011292-0.0529785-0.0030212-0.0721436,0
		c-0.0206604,0.0030212-0.0582581,0.0101318-0.1157532,0.0225525l-0.0353088-0.1578369l0.4614258-0.1123657l0.2134399-0.050354
		c0.2479858-0.0567322,0.4186096-0.0818787,0.5102844-0.0762634c0.1022034-0.0014954,0.1954041,0.0210571,0.2833252,0.066864
		c0.0387268,0.0184326,0.0729065,0.0405884,0.1003418,0.0654297c0.0289612,0.0270386,0.0601196,0.0608521,0.0905457,0.1006775
		c0.0545044,0.0725403,0.0917053,0.1544189,0.1123657,0.2480164c0.0323181,0.1453857,0.0214233,0.2810669-0.0312195,0.4092102
		c-0.0506897,0.0999146-0.1299744,0.1893921-0.2416077,0.26828l0.2025757,0.2303467
		c0.0630798,0.0732727,0.1285095,0.1488037,0.1976624,0.2281189c0.0661011,0.0792542,0.1228638,0.142395,0.1686707,0.1889954
		c0.0458679,0.0495911,0.0864258,0.0905457,0.1217651,0.1228638c0.0368042,0.0345459,0.0665283,0.0578613,0.0897827,0.0732727
		c0.036499,0.0255432,0.0913086,0.0360718,0.1676331,0.0300903L-269.5819397,500.1667786z"/>
	<path class="st1" d="M-268.1604309,499.1679993c0.0436096,0.2112122,0.0138855,0.4017029-0.0879211,0.5719299
		c-0.0969543,0.1615906-0.2483826,0.2633972-0.4546509,0.305481c-0.0409851,0.0093994-0.0879822,0.0154419-0.1356812,0.0233154
		c-0.0507202,0.0108948-0.1187439,0.0169067-0.2036743,0.0169067c-0.1153564,0.0041199-0.1946106,0.0014954-0.2348328-0.0079041
		c-0.0221558-0.005249-0.0443726-0.0229187-0.0661316-0.050354c-0.0221558-0.0240479-0.0372009-0.0582275-0.0477295-0.1033325
		l-0.0462036-0.1690979l-0.0349731-0.1089783l-0.0706482-0.2532654l0.1165161-0.0537109
		c0.075531,0.1213684,0.1420288,0.218689,0.1995239,0.2904663c0.0571289,0.0710144,0.1116028,0.1243591,0.1657104,0.1607971
		c0.0920715,0.0684204,0.1938782,0.089447,0.3066406,0.0684204c0.1123352-0.0233154,0.1938782-0.0804138,0.2434692-0.1747131
		c0.0278015-0.0458679,0.0447388-0.0980835,0.0507202-0.1525574c0.0075378-0.0574951,0.002655-0.1168823-0.0090027-0.1807861
		c-0.0236511-0.1141968-0.0699158-0.2021179-0.1408997-0.2630005c-0.0729065-0.0578613-0.2149353-0.1086426-0.4223938-0.1552124
		l-0.0713501-0.0169067c-0.075531-0.0150452-0.139801-0.0289307-0.1969604-0.0499878
		c-0.0567017-0.0168762-0.1055603-0.0372009-0.1521606-0.0604858c-0.067627-0.0334473-0.1303711-0.0913086-0.1890259-0.1755066
		c-0.0525818-0.0698547-0.0901489-0.1547852-0.1108398-0.2588806c-0.0368347-0.1912537-0.0093994-0.3614807,0.0852966-0.515564
		c0.0939636-0.1540527,0.2296143-0.2487488,0.4062195-0.2829285c0.0398254-0.008667,0.0789185-0.0127869,0.119873-0.0127869
		c0.0409851,0,0.0935669,0.0041199,0.1540527,0.0135193c0.120636,0.0093994,0.1998901,0.0101624,0.2348633,0.0052795
		l0.0383301-0.0131836l0.0788879-0.0409241l0.1048584,0.3392944l0.0793152,0.3043823l-0.1150208,0.0420837
		c-0.0709839-0.1097412-0.1334229-0.1957703-0.1811218-0.2573853c-0.0552063-0.0635376-0.1078186-0.1119995-0.1611938-0.1465454
		c-0.095459-0.0672607-0.1953735-0.09021-0.3009644-0.0687866c-0.0995789,0.0184021-0.1725159,0.070282-0.2209778,0.1517944
		c-0.0488281,0.0763245-0.0620117,0.1679688-0.0398254,0.2803345c0.0037842,0.0165405,0.0078735,0.0349731,0.0154114,0.0544739
		c0.0030212,0.0214233,0.0161743,0.0469971,0.0390625,0.0744324c0.0248108,0.0398254,0.0544739,0.0680237,0.0875854,0.0792847
		c0.0548401,0.0289001,0.1521912,0.0574951,0.2893066,0.0871582l0.1274109,0.0270386
		c0.2205505,0.0515137,0.39151,0.1307983,0.5144043,0.2390137
		C-268.2753906,498.8380737-268.1976318,498.9842529-268.1604309,499.1679993"/>
	<path class="st1" d="M-264.640625,496.9656372c-0.0593567,0.0263367-0.1052246,0.072937-0.1394043,0.1401978
		c-0.0375671,0.0687561-0.0642395,0.159668-0.0819092,0.2675171l-0.0007629,0.0090027l-0.0259399,0.2434998
		c-0.0642395,0.6143799-0.1401367,1.2032166-0.2325745,1.7672424l-0.0958557,0.0131531
		c-0.0837708-0.151825-0.168335-0.3340759-0.2569885-0.5486145l-0.0815735-0.1777344l-0.3400269-0.7695618
		c-0.0011597-0.0079041,0.0029907-0.0154419,0.0161438-0.0210571c0.0067444-0.0093994,0.0116272-0.0120544,0.0157776-0.0120544
		h0.0014954l-0.0105286,0.0440063l-0.1457825,0.8089905l-0.0932007,0.4565735l-0.0939331,0.3780212l-0.0991821,0.0157776
		c-0.0187988-0.0368042-0.0563965-0.1183472-0.1119995-0.2420044c-0.0278015-0.0604858-0.0488586-0.1044617-0.0642395-0.1326294
		l-0.151062-0.35849l-0.4742126-1.1922913c-0.0413208-0.1221313-0.0812073-0.1980591-0.1217651-0.2292175
		c-0.0142517-0.0116577-0.0364685-0.0176697-0.0665283-0.0187683c-0.0338135-0.0015259-0.0732422,0.0010986-0.1254883,0.0082703
		l-0.0255737-0.1619568l0.8019104-0.12854l0.0267029,0.1615906c-0.0939636,0.0146484-0.1461792,0.0300598-0.1612244,0.0484924
		c-0.0045166,0.0018311-0.0071411,0.011261-0.0097961,0.0247803l0.0248413,0.0913086l0.0473328,0.1352844l0.3851624,1.0325928
		l0.0811462,0.2190552l0.031189,0.0623779l0.0097961-0.0736389l0.0525818-0.2554932l0.0627747-0.3310852l0.0774231-0.4152222
		l0.0157776-0.1551819c0-0.011261-0.0064087-0.0255432-0.0139465-0.0454712
		c-0.0075073-0.0195312-0.0168762-0.0454407-0.030426-0.0785217c-0.0116272-0.0319519-0.0228882-0.0597839-0.031189-0.08078
		c-0.0093689-0.0214233-0.0289307-0.0567627-0.0567322-0.1086121c-0.0274353-0.045105-0.0533447-0.0758972-0.08078-0.0875549
		c-0.0278015-0.0123901-0.0935669-0.0184326-0.1999207-0.0187683l-0.0244141-0.1574707l0.8849487-0.1401672l0.0270386,0.1634521
		c-0.1142273,0.0188293-0.1837769,0.0368347-0.2104492,0.0586548c-0.0168762,0.0150146-0.0236511,0.0398254-0.0180359,0.075531
		l0.0082703,0.036438c0.0037842,0.0187683,0.008667,0.0338135,0.0153809,0.0443115l0.3934631,0.9472961l0.103363,0.2626953
		l0.0559692,0.1303711c0.0285339-0.1875,0.0585938-0.4020386,0.0852661-0.6417847
		c0.0161743-0.1367798,0.0270996-0.2442627,0.0346069-0.3227844c0.0134888-0.1371765,0.0221558-0.2532654,0.0263062-0.3502197
		c0.006012-0.0969543,0.006012-0.1600647,0-0.1908875c-0.0041504-0.0368347-0.0165405-0.0597229-0.0349731-0.067627
		c-0.0157776-0.0101624-0.0394287-0.0180359-0.0691528-0.0240479c-0.0289307-0.0045471-0.0724792-0.0060425-0.1318665-0.0060425
		l-0.0259399-0.157074l0.6278992-0.0999146L-264.640625,496.9656372z"/>
	<path class="st1" d="M-263.2371521,499.1003723l-0.9179993,0.1224976l-0.021759-0.1611938
		c0.0687561-0.0165405,0.1123352-0.0255432,0.1318665-0.0315857c0.0161438-0.0033569,0.0386963-0.0108948,0.0616455-0.0202942
		c0.0244141-0.0101318,0.0405884-0.0161438,0.0477295-0.0191345c0.0071411-0.0015259,0.0120239-0.0049133,0.0153809-0.0112915
		c0.0015259-0.0041199,0.0015259-0.0195312,0.0015259-0.0454712l-0.0240479-0.223175l-0.2164307-1.6244507
		c-0.0075684-0.0657654-0.027832-0.1082458-0.0556641-0.1255188c-0.0281677-0.0198975-0.0890198-0.0236511-0.1822205-0.0116577
		l-0.0586548,0.0075378l-0.0232544-0.1593323l0.9168396-0.1236267l0.0225525,0.1566772
		c-0.1209717,0.027832-0.1938782,0.0514832-0.2213135,0.0778198c-0.0176697,0.0131531-0.0217896,0.0409241-0.0176697,0.0838013
		l0.2247009,1.6792603c0.008667,0.0710449,0.0180664,0.1259155,0.0274353,0.1653442
		c0.0101624,0.039093,0.0236816,0.0680237,0.0387268,0.0860291c0.0270386,0.027832,0.0736389,0.0372314,0.139801,0.028595
		l0.0157776-0.0048828l0.072876-0.0097656L-263.2371521,499.1003723z"/>
	<path class="st1" d="M-261.1595154,496.9232178l-0.1037292,0.0732422
		c-0.1134949-0.1646118-0.2100525-0.2664185-0.2927246-0.3085022c-0.0811768-0.0398254-0.1878662-0.0537109-0.3130188-0.0383301
		c-0.0394287,0.0029907-0.0811462,0.0090332-0.1285095,0.0135498c-0.045105,0.0071106-0.075531,0.019165-0.0856628,0.0334167
		c-0.0142517,0.0154114-0.0169373,0.0608826-0.0086365,0.1337585l0.1927795,1.7191467
		c0.0052185,0.0466003,0.0116577,0.0830383,0.0183716,0.1089783c0.0063782,0.0263062,0.0203247,0.0454712,0.0368347,0.0567322
		c0.0150452,0.0154114,0.0443726,0.0236816,0.086792,0.0281677c0.0421143,0.0064087,0.0984802,0.0056763,0.1736145-0.0044861
		l0.0184021,0.1657104l-0.9777222,0.1104736l-0.019165-0.1679382l0.0368347-0.0045471
		c0.0758972-0.0075073,0.1269836-0.019165,0.1544189-0.0300598c0.0259399-0.0075073,0.0458374-0.0198975,0.055603-0.0375366
		c0.0139465-0.0139465,0.0203247-0.0548706,0.0221863-0.1191406c-0.0018616-0.0657654-0.0101318-0.165741-0.0263062-0.3028564
		l-0.1634521-1.4493408l-0.0044861-0.0608826c-0.0056458-0.0522461-0.0158081-0.0852966-0.0304565-0.0976868
		c-0.0135193-0.0090332-0.067627-0.0075378-0.1555481,0.0014954c-0.1368103,0.01651-0.2435303,0.0533447-0.316803,0.1127014
		c-0.0770264,0.0620422-0.1506653,0.1826172-0.2209473,0.3592529l-0.1187439-0.0323181l0.044342-0.3945312l0.0071716-0.0785217
		c0.0074768-0.0469971,0.0172424-0.081604,0.0338135-0.1063843c0.0119934-0.0233154,0.0255432-0.0379333,0.0405884-0.0439758
		c0.0180054-0.0018616,0.036438,0.0033875,0.0559692,0.0157776c0.0488281,0.0297241,0.1070862,0.0402222,0.1750793,0.0327148
		l0.8112793-0.0909119c0.0526428-0.006012,0.1104736-0.0139465,0.1706238-0.0233154
		c0.0578613-0.0079041,0.0886841-0.0127869,0.0961914-0.0131226c0.0507202-0.0060425,0.0898132-0.0124512,0.1164856-0.0180664
		c0.0248108-0.0063782,0.0631409-0.0142517,0.1108398-0.0263062c0.0458679-0.0108948,0.0875854-0.0278015,0.1281433-0.0484924
		l0.0961914-0.0401917c0.0150452-0.0011292,0.0334473,0.0127869,0.0552673,0.0401917
		c0.0270386,0.0315857,0.0488281,0.0774231,0.0706482,0.1337891l0.0191345,0.0405884L-261.1595154,496.9232178z"/>
	<path class="st1" d="M-258.5186768,498.6310425l-0.9995117,0.0826721l-0.0146484-0.1661072
		c0.1559448-0.0138855,0.2528687-0.04245,0.290863-0.0852661c0.0345459-0.0447388,0.0443115-0.1382751,0.0330505-0.2863464
		l-0.0488892-0.5910645c-0.0022278-0.0199585-0.0067139-0.0327148-0.010498-0.036438h-0.0601196l-0.9075012,0.0762634
		c-0.0450439,0.002594-0.0687561,0.0059814-0.0762329,0.010498l0.0044861,0.0593567l0.0484924,0.5933533
		c0.011261,0.1217346,0.0334167,0.2040405,0.0687561,0.2457581c0.0233154,0.0214233,0.0589905,0.0353088,0.1029663,0.0428162
		c0.0401917,0.0105591,0.0935364,0.0105591,0.1638184,0.0056763l0.0135193,0.1634521l-0.960083,0.0789185l-0.0131531-0.165741
		c0.0740356-0.0056458,0.1266479-0.0153809,0.1589661-0.0263062c0.0300598-0.0101318,0.0537415-0.025177,0.069519-0.046936
		c0.0281677-0.0379944,0.0334473-0.1368103,0.0198975-0.2976379l-0.08078-0.9803467
		c-0.0086365-0.0995789-0.0161438-0.1890259-0.0274353-0.2672119c-0.0063782-0.0777588-0.0154114-0.1544189-0.0251465-0.2284241
		c-0.008667-0.1127625-0.0207214-0.1819153-0.039093-0.2066956c-0.0123901-0.0218201-0.0304565-0.0379639-0.053772-0.0499573
		c-0.0281372-0.0097961-0.0709839-0.0097961-0.1266174-0.0064087l-0.0702515,0.0064087l-0.013916-0.1691284l0.9604797-0.0785217
		l0.0150146,0.168335l-0.0988159,0.008667c-0.0973206,0.0097656-0.1578064,0.0263062-0.1800232,0.0510864
		c-0.0247803,0.030426-0.0338135,0.0924683-0.0247803,0.1886597l0.0559998,0.6838684
		c0,0.0064087,0.0014954,0.0138855,0.0022583,0.027832l0.0341797-0.0033875l0.9630737-0.0793152
		c0.0259399-0.0029907,0.0435791-0.008606,0.0541382-0.0150146l-0.0056458-0.0394592l-0.0056152-0.0740356l-0.0462341-0.5617371
		c-0.0090332-0.1078491-0.0289307-0.1736145-0.0601196-0.2006836c-0.0334473-0.0251465-0.1101074-0.0338135-0.2269592-0.0244141
		l-0.0706482,0.0044861l-0.013916-0.1671753l0.9995422-0.0823059l0.0135498,0.168335l-0.0601501,0.0033875
		c-0.0379333,0.0044861-0.0706482,0.0082703-0.0999756,0.0131531c-0.0311584,0.0056152-0.0552063,0.0221558-0.0706482,0.0462036
		c-0.0209961,0.0349426-0.027771,0.1157532-0.0180054,0.2427368l0.0717773,0.8552551l0.0533752,0.5193176
		c0.0048828,0.055603,0.0101013,0.1097412,0.0164795,0.1611938c0.0067749,0.0514526,0.014679,0.1003418,0.0248413,0.1409302
		c0.0026245,0.0338135,0.0229187,0.06427,0.0619812,0.092804c0.0218201,0.0154114,0.0473633,0.0243835,0.0766602,0.0270691
		c0.0289307,0.0067749,0.0691528,0.008606,0.1176147,0.0033569L-258.5186768,498.6310425z"/>
	<path class="st1" d="M-255.523056,496.1870728c-0.0796356,0.0270691-0.1326294,0.056366-0.1619415,0.0822754
		c-0.0323334,0.0240479-0.061264,0.0699158-0.0905762,0.1360474c-0.0296783,0.0646057-0.077774,0.2092896-0.1454163,0.4358826
		c-0.0683899,0.2246704-0.1330261,0.4291077-0.1957703,0.6072388l-0.2645569,0.7593994
		c-0.0146484,0.0398254-0.0334167,0.0932007-0.058197,0.1559448c-0.0248108,0.0650024-0.0436096,0.1055908-0.053772,0.1247559
		c-0.0334473,0.0680237-0.0661316,0.103363-0.0991821,0.1048584c-0.039093,0.0014954-0.0883179-0.0793152-0.1488037-0.2434998
		l-0.0541382-0.1503296l-0.5812988-1.5319824c-0.0574951-0.1563416-0.1089783-0.2540283-0.1532898-0.2945862
		c-0.0443726-0.0386963-0.1225281-0.0661316-0.2337646-0.0830688l-0.0067444-0.156311l0.9292603-0.0413208l0.0071716,0.1600647
		c-0.1089783,0.0169067-0.1796265,0.0349426-0.2097168,0.0477295c-0.0119934,0.0105286-0.0172729,0.0240479-0.01651,0.039093
		l0.0093994,0.0773621c0.0029907,0.0191956,0.0123901,0.0488892,0.0315552,0.0909729l0.42276,1.1318054l0.0322876,0.0732727
		c0.0353088,0.0984497,0.0668945,0.1777344,0.0901794,0.2355957l0.1240234-0.3299255
		c0.0262756-0.0740356,0.0597229-0.1751099,0.0984192-0.2979736c0.0263367-0.0856934,0.0646362-0.2100525,0.1123657-0.3708801
		l0.1134644-0.3607483l0.0195618-0.0916748l0.0033875-0.0905457c-0.0033875-0.0499878-0.0202942-0.0886841-0.0522156-0.114624
		c-0.0334473-0.0270691-0.1131287-0.050354-0.2401123-0.0668945l-0.0071716-0.1547852l0.772583-0.0349731L-255.523056,496.1870728z"
		/>
	<path class="st1" d="M-254.8522949,497.4113159c0.0477142-0.0011292,0.0988159-0.0030212,0.1525269-0.0056458
		c0.0533752-0.0037537,0.123291-0.0086365,0.2044373-0.0187988c-0.0067749-0.025177-0.0146637-0.0503235-0.0218201-0.0725098
		c-0.0086212-0.0210266-0.019165-0.0518494-0.0322876-0.0897827l-0.2198181-0.5993958l-0.0353241,0.1086426l-0.2055511,0.6639709
		l0.0045166,0.01651L-254.8522949,497.4113159z M-253.5187073,498.446167l-0.9029694,0.019165l-0.003006-0.1687317
		c0.0638733-0.0022583,0.1096954-0.0044861,0.1337433-0.0071411c0.0252075-0.0014954,0.050766-0.0082397,0.0748138-0.0138855
		c0.0244293-0.0063782,0.0379333-0.0135498,0.0379333-0.0214539l-0.0078888-0.0300293
		c-0.0071564-0.031189-0.0146637-0.0552368-0.0236664-0.0691528l-0.1589508-0.4407654
		c-0.0022736-0.0014954-0.0041504-0.0112915-0.0082703-0.030426c-0.0247803-0.0668945-0.0623779-0.0988159-0.1134796-0.0988159
		l-0.5084076,0.011261c-0.0507202,0.0014954-0.0924225,0.056366-0.1232452,0.1664734
		c-0.008667,0.030426-0.0154419,0.0574646-0.0214386,0.084137l-0.0499878,0.1758728l-0.0349274,0.1262512l-0.0086212,0.0661621
		c0.0022278,0.0176697,0.0176544,0.0341492,0.0435486,0.0480957c0.0263214,0.0180359,0.1123657,0.0334167,0.2536621,0.0462036
		l0.0018768,0.1664734l-0.7304688,0.0138855l-0.0030365-0.1694641c0.0740204,0,0.1356659-0.0308228,0.1848907-0.0932007
		c0.0488739-0.0582275,0.0942993-0.151062,0.1367798-0.2792053l0.4899902-1.5293579l0.036438-0.1217346
		c0.0293121-0.0924377,0.0601349-0.1653442,0.0909729-0.2171631c0.0296631-0.0492554,0.0518188-0.0751648,0.0691376-0.0751648
		c0.0161591-0.0014954,0.0322723,0.0108948,0.0529785,0.033783c0.0198975,0.0214233,0.035675,0.0469971,0.0484467,0.0759277
		c0.0158081,0.030426,0.0327148,0.0774231,0.0597534,0.1442871c0.0263367,0.0653687,0.0608826,0.1585693,0.1029663,0.2765808
		l0.5410919,1.4316711c0.05336,0.1502991,0.095459,0.2382202,0.1281281,0.2671509
		c0.0319824,0.0319214,0.0796814,0.0473633,0.1450653,0.0443115l0.0627594-0.0014954L-253.5187073,498.446167z"/>
	<path class="st1" d="M-251.6481628,497.7874451l-0.0097656,0.0864563l-0.0037842,0.027771l-0.0758667,0.4381409
		c-0.0045166,0.0372314-0.0184326,0.0676575-0.0409851,0.0921021c-0.0187683,0.0153809-0.055603,0.0232544-0.1051941,0.0232544
		h-0.0210571l-1.564682-0.0078735l0.0018921-0.1706238l0.0634918,0.0030212l0.0157623-0.0030212h0.0312042
		c0.0657654,0,0.1123657-0.0289307,0.1375275-0.086792c0.0255585-0.0574951,0.036087-0.2246704,0.0387115-0.5031433v-0.0593872
		l0.0052795-1.1035767c0-0.1653442-0.0146637-0.2619324-0.0406036-0.2897644
		c-0.0138855-0.0198669-0.0398254-0.0330505-0.0751495-0.0435486c-0.0330505-0.0120544-0.0819244-0.0218201-0.1529541-0.027832
		v-0.1619263l0.920639,0.0022583l-0.0003815,0.1645813c-0.0657654-0.0015259-0.1127014,0.0010986-0.1435242,0.0082703
		c-0.0330505,0.0078735-0.0631409,0.0221558-0.0871887,0.0401917c-0.025177,0.0229187-0.0372162,0.0589905-0.0372162,0.1089783
		l-0.0071259,0.8713989l-0.0011139,0.2784119l-0.0003815,0.3017578l-0.0029907,0.2882385l0.0033722,0.1318665
		c0.0045013,0.0454712,0.0101166,0.0725403,0.0153961,0.0758972c0.0082855,0.0041199,0.0327148,0.0071411,0.078537,0.0071411
		c0.078537,0,0.1457977-0.0015259,0.2051697-0.0030212c0.0548553-0.002594,0.1097412-0.0041199,0.1642151-0.0059814
		c0.0349426-0.0037842,0.0683746-0.008667,0.0962067-0.0135193c0.0285492-0.002655,0.0604858-0.0120544,0.0909119-0.0259399
		c0.1123657-0.0469666,0.2374878-0.2100525,0.3739014-0.489624l0.0168915-0.0387268l0.1085815,0.0003967v0.0488586
		L-251.6481628,497.7874451z"/>
	<path class="st1" d="M-249.224823,496.2373962c-0.0484924,0.0071716-0.0838165,0.0139465-0.1014709,0.0176697
		c-0.0214386,0.0033875-0.0477142,0.0142822-0.0823059,0.0353088c-0.0142822,0.0083008-0.0262756,0.0199585-0.0398254,0.0334473
		c-0.0138855,0.0154419-0.0263062,0.0315857-0.0361023,0.0458679c-0.0097351,0.0169067-0.0149994,0.0473328-0.0161133,0.0875549
		l-0.0131683,0.3457031l-0.0154266,0.492981c-0.0059967,0.2221069-0.030426,0.4122314-0.0717621,0.5700378
		c-0.039444,0.1646118-0.0939178,0.2946167-0.1656952,0.3938293c-0.1435547,0.197998-0.3723755,0.293457-0.6861725,0.2848206
		c-0.282547-0.0090027-0.4877167-0.100708-0.6109619-0.2773132c-0.1292877-0.1739807-0.1882782-0.4437866-0.177002-0.809021
		l0.0293121-0.9953918c0.002243-0.0578613,0.002243-0.1048584-0.0014954-0.140564
		c-0.0011597-0.0371704-0.0105438-0.0638733-0.030426-0.0849304c-0.0165558-0.0213928-0.0864258-0.0428162-0.206665-0.066864
		l0.0056152-0.1627197l0.9664612,0.030426l-0.0048981,0.1619568c-0.1307526,0.0124207-0.2134399,0.0323181-0.2490997,0.0582581
		c-0.0154419,0.0093994-0.0259399,0.0240479-0.0372162,0.0428162c-0.0097656,0.0210571-0.0195312,0.0439758-0.0281982,0.0684204
		c-0.0063934,0.030426-0.0120087,0.0574951-0.01651,0.0819397c-0.0037689,0.0243835-0.0041504,0.0638428-0.0067596,0.1175842
		l-0.0184479,0.4279785l-0.0048828,0.1439514c-0.0063934,0.2205505-0.0056152,0.3855286,0.0022736,0.4941101
		c0.0071564,0.1093445,0.0240479,0.2036438,0.0488586,0.2754517c0.0375671,0.111969,0.0954285,0.1972961,0.1765747,0.2554932
		c0.078537,0.0589905,0.178894,0.0935974,0.29953,0.0962219c0.0852661,0.0022583,0.1671753-0.014679,0.243103-0.0507202
		c0.0736389-0.0319519,0.1427917-0.0838013,0.2040405-0.1578369c0.0571136-0.0721436,0.0984344-0.1664734,0.1247559-0.2799377
		c0.0259399-0.117981,0.0424347-0.3258057,0.0514832-0.6237793c0.003006-0.0886841,0.0041199-0.1690979,0.0041199-0.243103
		v-0.2288513c0.0033875-0.0559998,0.0007629-0.1089783,0-0.1544189c-0.0041199-0.0507812-0.0075073-0.0812073-0.0116577-0.094696
		c-0.013504-0.070282-0.039444-0.1153564-0.0762634-0.1439209c-0.0383301-0.0267029-0.1183624-0.0492554-0.2449951-0.0672913
		l0.0045013-0.1657104l0.7969971,0.0236816L-249.224823,496.2373962z"/>
	<path class="st1" d="M-247.2355347,498.0610046l-0.1029663,0.363739c-0.0105133,0.0319519-0.022171,0.0664978-0.0323181,0.1014709
		c-0.0120087,0.0390625-0.0217896,0.0608826-0.0232849,0.0657654c-0.0116577,0.0247803-0.0289307,0.04245-0.0556335,0.047699
		c-0.0198975,0.0112915-0.0514984,0.0142822-0.0932007,0.0135193l-0.0322876-0.0067444l-0.2637939-0.0221558l-0.5178223-0.0372009
		l-0.285965-0.0274353l-0.4952545-0.0267029l0.0086517-0.1672058c0.0522156,0.0037231,0.0991974,0.0037231,0.1337891,0.0011292
		c0.0349579-0.0011292,0.0653839-0.0033875,0.0879364-0.0079041c0.0210419-0.002594,0.0368195-0.0090027,0.0465851-0.0214233
		c0.0026245-0.019165,0.0067291-0.0454407,0.0120087-0.0777588c0.0082703-0.0346069,0.0112762-0.100708,0.0184326-0.2029419
		l0.0901489-1.6079102c0.0045471-0.0830078-0.0007324-0.1326294-0.0161133-0.1521606
		c-0.019928-0.0184021-0.1003571-0.0319519-0.2404938-0.0383301l0.0082397-0.1702271l0.7056885,0.0398254
		c0.1085815,0.0071716,0.1968842,0.0101624,0.2611542,0.0116577c0.2634277,0.0067749,0.399826,0.0093994,0.4122162,0.0108948
		h0.061264c0.0409393,0.0014954,0.0732574,0.0135498,0.0969543,0.0364685
		c0.0243988,0.0213928,0.0420532,0.0533447,0.0541077,0.092804l0.1145935,0.4482727l-0.1138611,0.0589905
		c-0.1326294-0.2182922-0.226944-0.3490601-0.2810364-0.3945618c-0.0552673-0.0443115-0.1244202-0.0675964-0.2070618-0.072876
		l-0.2615356-0.0138855c-0.0759277-0.0048828-0.1285248,0.0011292-0.1585693,0.01651
		c-0.0154266,0.0116577-0.0240479,0.0361023-0.0274353,0.0762939l-0.045105,0.8124084
		c-0.0037689,0.0394287-0.0029907,0.0604858,0.003006,0.0627441c0.002655,0.0048828,0.0086517,0.0067749,0.0176544,0.0086365
		h0.0244446l0.0950775,0.0045471c0.1074677,0.0063782,0.1822357-0.0169373,0.2280579-0.0706482
		c0.0267181-0.0334473,0.0518646-0.0782166,0.0721436-0.1420593c0.019165-0.0639038,0.0327148-0.1465454,0.0368195-0.2483826
		l0.1352997,0.0078735l-0.0315552,0.559906l-0.0127716,0.2416077l-0.0003815,0.2645264l-0.1337891-0.0071106
		c-0.0202789-0.1815186-0.0507202-0.2964783-0.0871429-0.3449707c-0.0372314-0.0507202-0.0980988-0.0785217-0.1815186-0.0826416
		l-0.1581879-0.0094299c-0.0041504,0-0.0071564-0.0011292-0.0120392-0.0044861c0,0-0.0071106,0-0.0090027-0.0026245
		l-0.0048828,0.0386963l-0.045105,0.8003845c-0.0033875,0.0469666,0.0018921,0.0781555,0.0161591,0.0928345
		c0.0146637,0.0161438,0.077774,0.0270386,0.1878967,0.0338135h0.0183868l0.055603,0.0033569l0.3573914,0.0206909
		c0.0612183,0.0048523,0.1213531-0.0169373,0.1773376-0.0608826c0.0327148-0.0244141,0.0721588-0.0642395,0.1116028-0.1176147
		c0.0518646-0.065033,0.105957-0.1424255,0.167984-0.2397766L-247.2355347,498.0610046z"/>
	<path class="st1" d="M-245.4439087,496.7905273c0.0067749-0.0762634-0.0059967-0.1412964-0.0409393-0.1957703
		c-0.0319366-0.0563354-0.0819244-0.0849304-0.1461792-0.0898132c-0.0680389-0.0075073-0.1202545,0.0094299-0.1563263,0.0503845
		c-0.0417175,0.0334167-0.0661163,0.0848999-0.0706177,0.1540527c-0.005661,0.0604858,0.0045013,0.1213684,0.0289001,0.1837463
		c0.0278168,0.0635071,0.0702972,0.1394043,0.1311646,0.2310791c0.04245-0.0262756,0.0788879-0.0488281,0.1089783-0.0702515
		c0.0281677-0.0229187,0.0533295-0.0466003,0.0732574-0.0713806
		C-245.4731903,496.9295959-245.4499054,496.8664551-245.4439087,496.7905273 M-245.4555359,498.2620239
		c-0.0447388-0.0901489-0.0875702-0.1754761-0.1311646-0.260376c-0.0228882-0.0368347-0.0627594-0.1078796-0.1202393-0.2055664
		c-0.030777-0.0533752-0.0657654-0.1123352-0.1052094-0.178833c-0.0413208-0.065033-0.0778046-0.1202698-0.1078491-0.1627502
		c-0.075882,0.0488892-0.1367493,0.115387-0.1841278,0.1939087c-0.0259247,0.0428162-0.0458221,0.086792-0.0597534,0.1356812
		c-0.013504,0.0473328-0.0221558,0.1010742-0.0270386,0.1585693c-0.0120087,0.1416321,0.0184174,0.269043,0.0939636,0.3814087
		c0.0751343,0.1111755,0.1698303,0.1713257,0.2829285,0.1826172c0.0586395,0.0040894,0.111618-0.0112915,0.1676025-0.0458984
		c0.0274048-0.021759,0.0597229-0.0499268,0.0898132-0.083374
		C-245.5250549,498.3435974-245.4927368,498.3059998-245.4555359,498.2620239 M-244.5405579,498.6997986
		c-0.0766449,0.0789185-0.1461792,0.1304016-0.2089233,0.1578369c-0.0631104,0.0266724-0.1319122,0.0353088-0.2089386,0.0293274
		c-0.103714-0.0093994-0.1890106-0.0514832-0.2539978-0.129303c-0.0541077-0.0672607-0.1146393-0.1777344-0.1758575-0.3329163
		c-0.1089478,0.1304016-0.2111969,0.2262268-0.3062439,0.2859802c-0.0958557,0.0604858-0.2040405,0.0856323-0.3212891,0.0758667
		c-0.1683502-0.0153809-0.2998657-0.0890198-0.3922882-0.2216797c-0.0965881-0.1329956-0.1371765-0.2919617-0.1195221-0.478363
		c0.0120544-0.1484375,0.0661469-0.2863159,0.1623535-0.4182129c0.0405884-0.0578613,0.0909119-0.1161194,0.1495667-0.1713562
		c0.0589752-0.0548706,0.1300049-0.114624,0.2107849-0.1743774c-0.0428314-0.0743713-0.0762634-0.1581726-0.1022034-0.2498779
		c-0.0281677-0.0916748-0.0375977-0.1777344-0.0300598-0.260376c0.0123901-0.1446838,0.0694885-0.2634277,0.173233-0.3554993
		c0.1025848-0.0905457,0.2224426-0.1318665,0.3588409-0.1175842c0.1202545,0.0108948,0.2205658,0.0570984,0.2983704,0.1427917
		c0.0770264,0.086792,0.1074677,0.1938782,0.0961914,0.3224182c-0.0082703,0.103302-0.0495911,0.1965027-0.1221313,0.2754211
		c-0.0383148,0.0349426-0.0796509,0.0653687-0.1225128,0.0924072c-0.0431976,0.0308228-0.095047,0.0612793-0.1559143,0.0932007
		l0.0841522,0.1345215c0.1003113,0.157074,0.1758423,0.2784424,0.2217255,0.3641357
		c0.0172729,0.0289307,0.0349274,0.0597534,0.052597,0.0909119c0.0112762,0.0233154,0.0247803,0.0522461,0.0409393,0.0898132
		c0.0297089-0.0323181,0.0473633-0.0604858,0.0612488-0.0826416c0.0127716-0.0236816,0.0319366-0.0545044,0.0567627-0.094696
		c0.0383148-0.0747681,0.0619812-0.1356506,0.0664825-0.1826172c0.0015106-0.0199585-0.0045013-0.0375977-0.0153809-0.0518799
		c-0.0142822-0.0119934-0.0653839-0.0259399-0.1566925-0.0439453l0.0139008-0.1578369l0.1187439,0.0135498l0.1082001,0.0101318
		l0.1773834,0.0135193l0.2344818,0.0033875l-0.0143127,0.1596985c-0.0375519-0.0026245-0.06987-0.0011292-0.0939178,0.0048828
		c-0.0263214,0.006012-0.0488281,0.0157776-0.0691528,0.0285339c-0.0360413,0.0154419-0.0725403,0.0443726-0.1048126,0.084198
		l-0.1296692,0.1976318c-0.0274048,0.0469666-0.0578308,0.0913086-0.0841522,0.1274109
		c-0.0281677,0.0398254-0.0589905,0.0826416-0.0954742,0.1262512l0.0590363,0.1367798
		c0.1078186,0.2720337,0.2036591,0.4137268,0.2893066,0.4216003c0.019928,0.0014954,0.042099-0.0018921,0.0620422-0.0078735
		l0.1337433-0.0608826L-244.5405579,498.6997986z"/>
	<path class="st1" d="M-242.0033875,497.9738159c0.0439758-0.3516846,0.0225372-0.6320496-0.0627747-0.8435974
		c-0.0875397-0.2088928-0.2303314-0.3254089-0.4238281-0.3516846c-0.2111816-0.0255737-0.3911743,0.0503235-0.5377502,0.2284546
		c-0.142395,0.1762085-0.2382202,0.4385376-0.2799225,0.7819824c-0.0435944,0.344574-0.0210419,0.6188965,0.0661469,0.8247681
		c0.0852661,0.2059631,0.2235565,0.3216553,0.4121704,0.3446045c0.2131042,0.0274048,0.3908386-0.044342,0.5388489-0.212677
		c0.0725403-0.0887146,0.136795-0.1965637,0.1852722-0.3262024
		C-242.0567322,498.2894592-242.0233002,498.1414185-242.0033875,497.9738159 M-241.661438,499.5805969
		c-0.0544891,0.039093-0.1055908,0.069519-0.154068,0.0942993c-0.0507202,0.0210571-0.1018219,0.0391235-0.1544647,0.0511169
		c-0.0961914,0.0248108-0.2017822,0.0293274-0.3174744,0.0150452c-0.0680237-0.0101624-0.1379089-0.0312195-0.2104492-0.0710449
		c-0.0714111-0.0353088-0.1476746-0.0894165-0.2269592-0.1604614c-0.0920563-0.0788574-0.1882629-0.178833-0.2867126-0.3002014
		c-0.0495911-0.0548706-0.09021-0.1010742-0.1221313-0.1345215c-0.0349426-0.0345764-0.0552063-0.0552368-0.0627594-0.0635071
		l-0.0894165-0.0725403c-0.1551971-0.1168518-0.260788-0.2269592-0.31604-0.3314209
		c-0.0638733-0.1097107-0.1082001-0.2382202-0.1315155-0.383667c-0.0292816-0.1457825-0.0311584-0.3024597-0.0101166-0.4715576
		c0.0198822-0.1724854,0.0649872-0.3261719,0.1281281-0.4599609c0.0646057-0.1348572,0.1435242-0.254364,0.2416077-0.3595886
		c0.1210327-0.1251221,0.2589264-0.217926,0.4182281-0.2761841c0.154068-0.0567627,0.3175201-0.0747681,0.4877472-0.053772
		c0.1450806,0.0176697,0.2746887,0.0635376,0.3889008,0.1356812c0.1172485,0.0664978,0.2194824,0.1634521,0.3092804,0.2915955
		c0.0886536,0.1255188,0.1510468,0.2675476,0.1841431,0.4212341c0.0198822,0.0804138,0.0319214,0.1608276,0.0360413,0.2416382
		c0.002655,0.0792542-0.0011139,0.1652832-0.0146637,0.2554932c-0.0420532,0.3468323-0.1615753,0.6252747-0.3603516,0.8349304
		c-0.1702271,0.1837769-0.3821564,0.2976379-0.6327667,0.3408508l0.072876,0.0664978
		c0.2145538,0.2040405,0.3761597,0.3122864,0.4787445,0.3246765c0.0153961,0.0026245,0.0338287,0.0026245,0.0548706,0
		c0.0195007,0,0.0416718-0.0033875,0.0638733-0.0090332c0.0247803-0.0064087,0.0488281-0.0154114,0.0721436-0.0247803
		c0.0229034-0.0090332,0.0574799-0.0225525,0.1033173-0.044342L-241.661438,499.5805969z"/>
	<path class="st1" d="M-238.9878845,497.3166199c-0.0511017,0.0007629-0.0852661,0.0022583-0.1029358,0.0037537
		c-0.0210419,0.0011292-0.0488586,0.0093994-0.0864258,0.0244446c-0.013916,0.0063782-0.0293121,0.0168762-0.0443573,0.0300598
		c-0.0168915,0.0119934-0.0285492,0.0255432-0.0409393,0.0409241c-0.0123901,0.0169373-0.0203247,0.0443726-0.027832,0.084198
		l-0.0540924,0.3404236l-0.0763092,0.4877319c-0.0353088,0.2198486-0.0818787,0.4047241-0.1416321,0.5588074
		c-0.0593719,0.1566772-0.1304016,0.2780457-0.2130585,0.3686218c-0.1679993,0.1810913-0.4073334,0.2472534-0.7162323,0.2002563
		c-0.2814331-0.0450745-0.4719391-0.1612244-0.5737915-0.3528442c-0.1055908-0.1885986-0.1303711-0.4633179-0.0736389-0.8233032
		l0.151825-0.9837646c0.0090027-0.0574646,0.013504-0.1051941,0.0150146-0.1416626
		c0.0014954-0.0353088-0.003006-0.0650024-0.019165-0.0883179c-0.0142822-0.0221558-0.0796509-0.0525818-0.1954041-0.0913086
		l0.0244446-0.1593018l0.9555817,0.1488037l-0.0270538,0.1600647c-0.1300354-0.0029907-0.2149506,0.0056763-0.254776,0.0274353
		c-0.0131531,0.0056763-0.0274353,0.019165-0.0390778,0.0379639c-0.014679,0.0184326-0.0248413,0.039093-0.0372314,0.0653992
		c-0.0104828,0.0274048-0.0187683,0.0541077-0.0255432,0.0792542c-0.0078888,0.0221863-0.0146637,0.0593872-0.022934,0.1134949
		l-0.0706482,0.42276l-0.0217743,0.1427917c-0.0349426,0.217926-0.055603,0.380249-0.0608826,0.4903564
		c-0.0033722,0.1100769,0,0.2036743,0.0150604,0.279541c0.0217743,0.1161499,0.0717621,0.2070618,0.1457977,0.2754822
		c0.06987,0.0690918,0.1649475,0.1130981,0.2840424,0.1322327c0.0845795,0.0127869,0.1664886,0.006012,0.2480316-0.0191345
		c0.0770264-0.0236816,0.151062-0.0687866,0.2201691-0.1330261c0.0661469-0.0638733,0.1195221-0.1517944,0.1593475-0.2641602
		c0.0402069-0.1116333,0.0819092-0.3153076,0.1289062-0.6113892c0.0127563-0.0856628,0.0240326-0.1664429,0.0330353-0.2404785
		c0.0093994-0.0759277,0.019165-0.1521912,0.0289459-0.2247314c0.0093842-0.0570984,0.0138855-0.1096802,0.0184326-0.157074
		c0.0014954-0.0465698,0.0014954-0.0796509,0-0.0931702c-0.0060425-0.0710144-0.0252075-0.1206055-0.0575256-0.151825
		c-0.0345612-0.030426-0.1127014-0.0638428-0.2359619-0.0987854l0.0262909-0.1631165l0.7872314,0.1217346L-238.9878845,497.3166199z
		"/>
	<path class="st1" d="M-238.4636536,498.6569519c0.0480957,0.0105591,0.0988007,0.0176697,0.1510162,0.0263367
		c0.052597,0.0063782,0.1217499,0.0142822,0.2036743,0.0221558c-0.0007324-0.0289307-0.0037384-0.0522461-0.0078888-0.0774231
		c-0.0018921-0.0206604-0.0048828-0.0529785-0.0108948-0.0924072l-0.0976868-0.6331787l-0.0567627,0.100708l-0.3336792,0.6109924
		v0.0157776L-238.4636536,498.6569519z M-237.3611755,499.9387207l-0.8901978-0.1623535l0.0312042-0.1660461
		c0.0631104,0.0108643,0.1074677,0.0191345,0.1315155,0.0206299c0.0266724,0.0018616,0.0529938,0.003418,0.077774,0.0003662
		c0.0248108-0.0018616,0.0379333-0.0067444,0.039444-0.0131226l-0.0015106-0.0323181
		c0-0.0308228-0.0048828-0.0559998-0.0090027-0.0725403l-0.0664825-0.4618225
		c-0.0018921-0.0029907-0.0018921-0.0142517-0.0018921-0.0319214c-0.0116577-0.0698853-0.0424805-0.1100769-0.094696-0.1195374
		l-0.4982605-0.0905151c-0.0507507-0.0082703-0.1022339,0.0375977-0.154068,0.1386414
		c-0.0139313,0.0274353-0.0270538,0.0526428-0.0383148,0.078186l-0.0834351,0.1626892l-0.0586243,0.1161194l-0.022171,0.0642395
		c-0.0015106,0.0176697,0.0097809,0.0360718,0.0319366,0.0559998c0.0255432,0.0229187,0.1048584,0.0544739,0.2393799,0.0958252
		l-0.0300903,0.1627197l-0.7180939-0.1322937l0.0293274-0.1653442c0.0732727,0.0131531,0.1401825-0.0052795,0.2014008-0.055603
		c0.0582428-0.047699,0.1210022-0.1289062,0.1886597-0.2446289l0.7834473-1.4038696l0.0608826-0.1127319
		c0.0469666-0.0834351,0.092804-0.1473083,0.131897-0.192749c0.0383301-0.0413513,0.0664978-0.0627441,0.0826569-0.0601196
		c0.0150452,0.0029907,0.030426,0.0187683,0.0465851,0.0432129c0.0124359,0.0255432,0.024826,0.0548706,0.0319519,0.0848999
		c0.0063782,0.0312195,0.0161438,0.084198,0.0293121,0.1518555c0.0120392,0.0705872,0.0270538,0.1656799,0.0454865,0.2897034
		l0.2449951,1.5131836c0.0244293,0.1578369,0.0469666,0.2551575,0.072876,0.2874756
		c0.0259247,0.0379333,0.0680237,0.0623779,0.1341705,0.0740356l0.0604858,0.0108948L-237.3611755,499.9387207z"/>
	<path class="st1" d="M-235.3617249,499.67453l-0.0263214,0.0834045l-0.0097656,0.0267029l-0.1615753,0.4144592
		c-0.0120087,0.0368347-0.0319366,0.0627747-0.0593719,0.0812073c-0.0217743,0.0119934-0.058609,0.0119934-0.1078644,0
		l-0.0213928-0.0030212l-1.5293579-0.3212891l0.0349426-0.168335l0.0612488,0.0161438l0.0176697,0.0015259l0.0300598,0.0059814
		c0.0653687,0.0142822,0.1145782-0.0041199,0.1517944-0.056366c0.036438-0.0514832,0.0823059-0.2141724,0.1386719-0.4862061
		l0.0127716-0.0597534l0.226944-1.0795898c0.0327148-0.1607971,0.0398254-0.2573853,0.019165-0.2904968
		c-0.0127716-0.0213623-0.0330505-0.0409241-0.0627594-0.0596924c-0.0311737-0.0165405-0.0788727-0.0361023-0.1472931-0.0556641
		l0.0338287-0.159668l0.8999634,0.1882629l-0.0338135,0.1582031c-0.0635376-0.0123901-0.1104889-0.0195618-0.1412964-0.0195618
		c-0.0342102,0.0026245-0.0665283,0.0090027-0.0920868,0.0236816c-0.0300446,0.0154114-0.0495911,0.0480957-0.0597229,0.0991821
		l-0.1826172,0.8503723l-0.0556335,0.2739258l-0.0634918,0.2938538l-0.0589752,0.2825928l-0.0225525,0.1281433
		c-0.0048828,0.047699-0.0048828,0.0740356,0,0.0785217c0.0048828,0.0064087,0.0296631,0.0142822,0.0747528,0.0236816
		c0.0778046,0.0161438,0.142807,0.0296631,0.2006836,0.0368042c0.0548553,0.0112915,0.1093445,0.019928,0.1608429,0.0293274
		c0.0353088,0.0029907,0.0698547,0.0052185,0.0988007,0.006012c0.0300446,0.0014954,0.0608673-0.0007935,0.0958099-0.0090027
		c0.1195068-0.0218201,0.2735748-0.1567383,0.4644775-0.4032288l0.0221558-0.0345459l0.1074677,0.0225525l-0.0124359,0.0480957
		L-235.3617249,499.67453z"/>
	<path class="st1" d="M-234.4700317,500.5692139l-0.9003601-0.2070007l0.0357208-0.1578369
		c0.0710297,0.0082703,0.1130981,0.0138855,0.134903,0.0172729c0.01651,0.0007629,0.0387115,0.0022583,0.0631104,0.0007629
		c0.0270538,0,0.0450897-0.0007629,0.0537415-0.0007629c0.0071259,0.0007629,0.0135193,0,0.0184021-0.0052795
		c0.0022583-0.0037231,0.0075378-0.0187683,0.0165405-0.04245l0.0567627-0.217926l0.3663483-1.5958862
		c0.0161591-0.0661011,0.0135498-0.1123657-0.0082703-0.1382446c-0.019165-0.028595-0.0743713-0.0526428-0.1656952-0.0744324
		l-0.059021-0.0127563l0.0349731-0.1593628l0.9029388,0.2089539l-0.0341644,0.1521912
		c-0.1221313-0.013916-0.2010498-0.0161743-0.2344971-0.0045166c-0.0214233,0.0078735-0.0368195,0.0315552-0.0458221,0.0743713
		l-0.3798981,1.6499939c-0.0154266,0.0702515-0.0263214,0.1247864-0.0315857,0.1653442
		c-0.0048981,0.0398254-0.0026245,0.0710449,0.0052643,0.0917053c0.0153961,0.0372009,0.0548706,0.0627441,0.1191254,0.0777588
		h0.0180054l0.0710449,0.0165405L-234.4700317,500.5692139z"/>
	<path class="st1" d="M-231.7258148,499.2713318l-0.1240234,0.0319519
		c-0.0473328-0.1927795-0.1014252-0.3239136-0.1638489-0.3919373c-0.064209-0.0675964-0.1570587-0.1164856-0.2806549-0.1480408
		c-0.0372162-0.0086365-0.078186-0.019928-0.1225128-0.0315857c-0.0469818-0.008606-0.0774231-0.008606-0.0939178,0
		c-0.0184479,0.0105591-0.036499,0.0514832-0.0541534,0.1259155l-0.4257202,1.6762695
		c-0.0105438,0.0447388-0.0180359,0.0811768-0.022171,0.1078491c0,0.0259399,0.0041351,0.0469971,0.0150146,0.06427
		c0.0086517,0.0195312,0.0319366,0.0379333,0.0714111,0.0578613c0.0372009,0.0195312,0.0913086,0.0402222,0.1630707,0.0589905
		l-0.0413208,0.1593323l-0.9521942-0.2431335l0.0409546-0.1626892l0.0353088,0.0097656
		c0.0740356,0.0184021,0.1255188,0.0289307,0.1548462,0.0255432c0.0289307,0.0033875,0.049942-0.0037537,0.0661011-0.0153809
		c0.0180664-0.0101624,0.0383301-0.045105,0.0608826-0.1048584c0.0229187-0.0619812,0.0507507-0.159668,0.0845642-0.290863
		l0.3588562-1.4140015l0.0149994-0.0578613c0.0127716-0.0522156,0.0154266-0.0867615,0.0079346-0.1040955
		c-0.0124207-0.0131531-0.0616455-0.0300293-0.1476898-0.0514832c-0.1352844-0.0349426-0.246521-0.0375366-0.3378296-0.0071106
		c-0.0932007,0.030426-0.2032776,0.1168518-0.3314209,0.2573853l-0.0999603-0.0702515l0.1811066-0.3547363l0.0346069-0.070282
		c0.0206604-0.0424194,0.0450897-0.0706482,0.0683594-0.0890198c0.0203247-0.0172729,0.0375977-0.0252075,0.0541077-0.0252075
		c0.0173187,0.0030212,0.0327148,0.0173035,0.0466003,0.0338135c0.0345917,0.0443726,0.0849152,0.0747986,0.1529541,0.0924683
		l0.7913361,0.2002869c0.0503693,0.0127563,0.106369,0.0259399,0.1668549,0.0394287
		c0.0552521,0.0120544,0.086792,0.0184326,0.0943451,0.0206604c0.0492096,0.0124207,0.0867615,0.0210571,0.1145782,0.0240479
		c0.027832,0.0037842,0.0638733,0.0093994,0.1138763,0.0150452c0.0469666,0.0052795,0.0939178,0.0052795,0.1367798,0
		l0.1051941-0.0056458c0.0131683,0.0045471,0.0274353,0.0248108,0.0387115,0.0593567
		c0.0108948,0.0383301,0.0168915,0.0868225,0.0168915,0.1488647l0.0030365,0.0443115L-231.7258148,499.2713318z"/>
	<path class="st1" d="M-229.5843506,499.5077209l-0.0462036-0.0128174c-0.0619965-0.019165-0.1292572-0.0063782-0.196167,0.0383606
		c-0.0694885,0.0420532-0.1826172,0.1540222-0.3385315,0.3367004l-0.5069275,0.5944519l-0.1657104,0.5861816
		c-0.0379333,0.1300049-0.0492249,0.2115479-0.0368347,0.2457581c0.0131531,0.0334473,0.0518799,0.0585938,0.1172485,0.0789185
		l0.0383301,0.0101318l0.0710144,0.0202942l-0.0443573,0.1582031l-0.9037018-0.2573853l0.045105-0.1544495l0.047699,0.0040894
		c0.1349182,0.0368347,0.2149506,0.0135498,0.241272-0.0758667l0.184494-0.6478271
		c-0.0338287-0.1315002-0.0654144-0.2870789-0.0995789-0.4715881l-0.0154266-0.0736389l-0.0541077-0.3201904l-0.022934-0.1059265
		c-0.050705-0.3047485-0.109314-0.467865-0.1724548-0.4858704l-0.0195465-0.0048828l-0.0619812,0.0153809l0.0514832-0.1875
		l0.8789062,0.2498779l-0.0450897,0.1593628l-0.0807953-0.0229492c-0.0304413-0.0090027-0.0563812-0.0131531-0.0762634-0.0176697
		c-0.0176697-0.005249-0.0372162-0.005249-0.0541534,0c-0.0063782,0.0011292-0.0120087,0.0045166-0.0161591,0.0064087
		c-0.0056152,0.005249-0.0101013,0.0086365-0.0101013,0.0086365c-0.0030212,0.0120239-0.0030212,0.0255737-0.0048981,0.0436096
		c-0.002655,0.0168762-0.0033875,0.0401611-0.002655,0.0690918c0.0011444,0.0319519,0.0045319,0.0608826,0.0086517,0.0924683
		c0.0033875,0.0304565,0.006012,0.0623779,0.0105438,0.0943298l0.0537262,0.2904663l0.0642548,0.3261414l0.0345459,0.1484375
		l0.565567-0.665863l0.0413208-0.0552368l0.0236664-0.0454712c0.0037689-0.0319214-0.0011139-0.0608521-0.0146637-0.0834045
		c-0.0157776-0.0165405-0.0368347-0.0308228-0.06427-0.0458679c-0.0292664-0.0153809-0.072876-0.0315552-0.1337433-0.0473328
		l0.0443268-0.1578369l0.710968,0.2036743L-229.5843506,499.5077209z"/>
	<polygon class="st0" points="-270.9827881,481.0594788 -269.0047607,481.0594788 -269.0047607,484.9449158 
		-266.5063171,481.0594788 -264.050293,481.0594788 -266.8572693,485.0448608 -263.6993103,491.1852417 -266.1557007,491.1852417 
		-268.1968689,486.9308167 -269.0047607,488.0649109 -269.0047607,491.1852417 -270.9827881,491.1852417 	"/>
	<path class="st0" d="M-261.7310791,481.0592957h2.009613l2.8388977,10.1255798h-2.0629272l-0.4674988-1.8149414h-2.6476135
		l-0.478363,1.8149414h-2.0310059L-261.7310791,481.0592957z M-261.6036682,487.4129333h1.7224731l-0.8398132-3.5453186h-0.0214539
		L-261.6036682,487.4129333z"/>
	<polygon class="st0" points="-256.9663696,481.0594788 -254.9360962,481.0594788 -252.2989807,487.299469 -252.2775574,487.299469 
		-252.2775574,481.0594788 -250.41716,481.0594788 -250.41716,491.1852417 -252.4477844,491.1852417 -255.084549,484.8742676 
		-255.1055603,484.8742676 -255.1055603,491.1852417 -256.9663696,491.1852417 	"/>
	<polygon class="st0" points="-243.6849365,483.3287659 -245.9500427,483.3287659 -245.9500427,491.1852417 
		-247.9273376,491.1852417 -247.9273376,483.3287659 -250.1920624,483.3287659 -250.1920624,481.0594788 -243.6849365,481.0594788 	
		"/>
	<polygon class="st0" points="-243.4497223,481.0594788 -237.3998871,481.0594788 -237.3998871,483.1727905 
		-241.4720459,483.1727905 -241.4720459,484.9449158 -237.7508545,484.9449158 -237.7508545,486.9875793 -241.4720459,486.9875793 
		-241.4720459,488.9160156 -237.2935333,488.9160156 -237.2935333,491.1852417 -243.4497223,491.1852417 	"/>
	<rect x="-236.8035431" y="481.0594788" class="st0" width="1.9780121" height="10.1257324"/>
</g>
</svg>
