<svg id="Layer_1" data-name="Layer 1" xmlns="http://www.w3.org/2000/svg" viewBox="0 0 35.63 24"><defs><style>.cls-1{fill:#1976d2;}.cls-2{fill:none;}</style></defs><title>ico_price_on</title><path class="cls-1" d="M371.66,646l-4.7-4.7h3.76v-4.7h1.88v4.7h3.76Z" transform="translate(-363.37 -629.12)"/><path class="cls-1" d="M380.82,642.66H379.3V646h-1.9V636.8h3.43a5.26,5.26,0,0,1,1.43.18,3,3,0,0,1,1.07.53,2.34,2.34,0,0,1,.67.87,2.9,2.9,0,0,1,.23,1.21,3.35,3.35,0,0,1-.11.91,2.37,2.37,0,0,1-.85,1.27,3.4,3.4,0,0,1-.69.41l2,3.78V646h-2Zm-1.52-1.54h1.54a2,2,0,0,0,.66-0.1,1.26,1.26,0,0,0,.47-0.28,1.17,1.17,0,0,0,.28-0.43,1.57,1.57,0,0,0,.1-0.56,1.39,1.39,0,0,0-.37-1,1.54,1.54,0,0,0-1.14-.37H379.3v2.77Z" transform="translate(-363.37 -629.12)"/><path class="cls-1" d="M388.18,636.8l2.37,6.7,2.36-6.7h2.5V646H393.5v-2.53l0.19-4.36L391.2,646h-1.31l-2.49-6.88,0.19,4.35V646h-1.9V636.8h2.49Z" transform="translate(-363.37 -629.12)"/><path class="cls-2" d="M363.37,629.12H399v24H363.37v-24Z" transform="translate(-363.37 -629.12)"/></svg>