<?xml version="1.0" encoding="utf-8"?>
<!-- Generator: Adobe Illustrator 19.1.0, SVG Export Plug-In . SVG Version: 6.00 Build 0)  -->
<svg version="1.1" id="Layer_1" xmlns="http://www.w3.org/2000/svg" xmlns:xlink="http://www.w3.org/1999/xlink" x="0px" y="0px"
	 viewBox="0 0 14 14" style="enable-background:new 0 0 14 14;" xml:space="preserve">
<style type="text/css">
	.st0{fill:none;}
	.st1{fill:#408E40;}
</style>
<g>
	<path class="st0" d="M0,0h14v14H0V0z"/>
	<path class="st1" d="M12.2713394,10.692071v-8.166666c0-0.6475002-0.5250006-1.1666667-1.166667-1.1666667h-8.166666
		c-0.6416669,0-1.1666666,0.5191666-1.1666666,1.1666667v8.166666c0,0.6416674,0.5249997,1.166667,1.1666666,1.166667h8.166666
		C11.7463388,11.8587379,12.2713394,11.3337383,12.2713394,10.692071z M7.4979672,9.9024382H6.5020328V8.9065037h0.9959345
		V9.9024382z M8.52876,6.043191L8.0805893,6.5013208C7.7220526,6.8648367,7.4979672,7.1636176,7.4979672,7.9105687H6.5020328
		V7.6615849c0-0.5477643,0.2240849-1.0457315,0.5826216-1.4092479l0.6174798-0.627439
		C7.8863821,5.4456301,7.995935,5.1966462,7.995935,4.9227643C7.995935,4.375,7.5477643,3.9268291,7,3.9268291
		S6.004065,4.375,6.004065,4.9227643h-0.995935c0-1.1005082,0.8913617-1.9918699,1.9918699-1.9918699
		s1.9918699,0.8913617,1.9918699,1.9918699C8.9918699,5.3609753,8.812602,5.7593493,8.52876,6.043191z"/>
</g>
</svg>
