<svg xmlns="http://www.w3.org/2000/svg" viewBox="0 0 18 18"><defs><style>.cls-1{fill:#4d4d4d;}.cls-2{fill:#c8c6c2;}</style></defs><title>FB_HVR</title><g id="Layer_2" data-name="Layer 2"><g id="artwork"><circle class="cls-1" cx="8.8" cy="8.95" r="8.5"/><path id="_Compound_Path_" data-name="&lt;Compound Path&gt;" class="cls-1" d="M9,.7A8.3,8.3,0,1,1,.7,9,8.31,8.31,0,0,1,9,.7M9,0a9,9,0,1,0,9,9A9,9,0,0,0,9,0Z"/><g id="_Group_" data-name="&lt;Group&gt;"><polygon id="_Path_" data-name="&lt;Path&gt;" class="cls-2" points="10.61 9.23 6.9 9.23 6.9 7.52 10.9 7.52 10.61 9.23"/><path id="Facebook" class="cls-2" d="M7.76,6.39v6.85H9.47V6.66a.26.26,0,0,1,.29-.29H10.9V4.66H9.58A1.6,1.6,0,0,0,7.76,6.39Z"/></g></g></g></svg>