<svg xmlns="http://www.w3.org/2000/svg" viewBox="0 0 18 18"><defs><style>.cls-1{fill:#4d4d4d;}</style></defs><title>IG</title><g id="Layer_2" data-name="Layer 2"><g id="artwork"><path id="_Compound_Path_" data-name="&lt;Compound Path&gt;" class="cls-1" d="M9,.7A8.3,8.3,0,1,1,.7,9,8.31,8.31,0,0,1,9,.7M9,0a9,9,0,1,0,9,9A9,9,0,0,0,9,0Z"/><g id="_Group_" data-name="&lt;Group&gt;"><path id="_Compound_Path_2" data-name="&lt;Compound Path&gt;" class="cls-1" d="M10.79,4.87H6.93a2.18,2.18,0,0,0-2.15,2.2v3.77A2.18,2.18,0,0,0,6.93,13h3.86a2.18,2.18,0,0,0,2.15-2.2V7.06A2.18,2.18,0,0,0,10.79,4.87Zm1.42,5.91a1.51,1.51,0,0,1-1.49,1.52H7a1.51,1.51,0,0,1-1.49-1.52V7.12A1.51,1.51,0,0,1,7,5.6h3.72a1.51,1.51,0,0,1,1.49,1.52Z"/><path id="_Compound_Path_3" data-name="&lt;Compound Path&gt;" class="cls-1" d="M8.86,6.85a2.1,2.1,0,1,0,2.05,2.1A2.07,2.07,0,0,0,8.86,6.85Zm0,3.45a1.35,1.35,0,1,1,1.32-1.35A1.34,1.34,0,0,1,8.86,10.3Z"/><ellipse id="_Path_" data-name="&lt;Path&gt;" class="cls-1" cx="11.02" cy="6.74" rx="0.46" ry="0.47"/></g></g></g></svg>