<svg xmlns="http://www.w3.org/2000/svg" viewBox="0 0 18 18"><defs><style>.cls-1{fill:#4d4d4d;}</style></defs><title>TW</title><g id="Layer_2" data-name="Layer 2"><g id="artwork"><path id="_Compound_Path_" data-name="&lt;Compound Path&gt;" class="cls-1" d="M9,.7A8.3,8.3,0,1,1,.7,9,8.31,8.31,0,0,1,9,.7M9,0a9,9,0,1,0,9,9A9,9,0,0,0,9,0Z"/><path id="Twitter" class="cls-1" d="M13.28,5.9a3.56,3.56,0,0,1-1.15.45,1.78,1.78,0,0,0-1.32-.58A1.83,1.83,0,0,0,9,7.61a1.89,1.89,0,0,0,0,.42A5.08,5.08,0,0,1,5.34,6.1,1.88,1.88,0,0,0,5.09,7a1.86,1.86,0,0,0,.8,1.54,1.77,1.77,0,0,1-.82-.23v0a1.84,1.84,0,0,0,1.45,1.82,1.72,1.72,0,0,1-.48.07,1.75,1.75,0,0,1-.34,0A1.81,1.81,0,0,0,7.4,11.5a3.56,3.56,0,0,1-2.24.79l-.43,0a5,5,0,0,0,2.77.83,5.17,5.17,0,0,0,5.14-5.27c0-.08,0-.16,0-.24a3.71,3.71,0,0,0,.9-1,3.53,3.53,0,0,1-1,.29A1.85,1.85,0,0,0,13.28,5.9Z"/></g></g></svg>