<svg xmlns="http://www.w3.org/2000/svg" viewBox="0 0 15 15"><defs><style>.a{fill:#919396;}.b{fill:none;}</style></defs><title>ic_mileage_4</title><path class="a" d="M6.7 9.3a1.3 1.3 0 1 0 1.6 1.5L11 9.5l-3 .2a1.3 1.3 0 0 0-1.3-.4zm-.1 1.4a.5.5 0 1 1 .6.3.5.5 0 0 1-.6-.3zM13.1 5.9l-1.8 1.8a5.4 5.4 0 0 1 .9 2.8h2.2v-.4a6.9 6.9 0 0 0-1.3-4.2zM.5 10.1v.4h.9a5.4 5.4 0 0 1 1.5-3.6l-1-1a6.9 6.9 0 0 0-1.4 4.2zM2.5 5.2l1.1 1.1a5.3 5.3 0 0 1 3.2-1.1h.3V3.1a6.9 6.9 0 0 0-4.6 2.1zM10.8 7l1.7-1.7a6.9 6.9 0 0 0-4.6-2.2v2.2A5.4 5.4 0 0 1 10.8 7z"/><path class="b" d="M0 0h15v15H0z"/></svg>
