<svg xmlns="http://www.w3.org/2000/svg" viewBox="0 0 18 18"><defs><style>.cls-1{fill:#4d4d4d;}</style></defs><title>YT</title><g id="Layer_2" data-name="Layer 2"><g id="artwork"><path id="_Compound_Path_" data-name="&lt;Compound Path&gt;" class="cls-1" d="M9,.7A8.3,8.3,0,1,1,.7,9,8.31,8.31,0,0,1,9,.7M9,0a9,9,0,1,0,9,9A9,9,0,0,0,9,0Z"/><g id="_Group_" data-name="&lt;Group&gt;"><path id="_Compound_Path_2" data-name="&lt;Compound Path&gt;" class="cls-1" d="M9.57,10.48a.33.33,0,0,0-.22.11v1.5a.32.32,0,0,0,.22.11c.13,0,.2-.11.2-.33V10.82c0-.22-.07-.34-.2-.34Zm0,0"/><path id="_Compound_Path_3" data-name="&lt;Compound Path&gt;" class="cls-1" d="M11.21,10.48c-.15,0-.22.11-.22.34v.23h.45v-.23c0-.23-.07-.34-.22-.34Zm0,0"/><path id="_Compound_Path_4" data-name="&lt;Compound Path&gt;" class="cls-1" d="M12.14,8.79a1.06,1.06,0,0,0-.74-.31c-1-.07-2.58-.07-2.58-.07h0s-1.55,0-2.58.07a1.06,1.06,0,0,0-.74.31,1.59,1.59,0,0,0-.29.73,11.08,11.08,0,0,0-.07,1.19v.56a11.1,11.1,0,0,0,.07,1.19,1.58,1.58,0,0,0,.29.73,1.26,1.26,0,0,0,.81.31c.59.06,2.51.07,2.51.07s1.55,0,2.59-.08a1.06,1.06,0,0,0,.74-.31,1.58,1.58,0,0,0,.29-.73,11.12,11.12,0,0,0,.07-1.19V10.7a11.1,11.1,0,0,0-.07-1.19,1.59,1.59,0,0,0-.29-.73ZM6.74,12.58h-.5V9.73H5.72V9.27H7.28v.47H6.74Zm1.77,0H8.06v-.27a.72.72,0,0,1-.51.3.28.28,0,0,1-.29-.18,1.27,1.27,0,0,1,0-.37v-2h.45v1.82a1.72,1.72,0,0,0,0,.17c0,.07,0,.11.11.11s.18-.07.28-.21V10.11h.45Zm1.7-.74a2,2,0,0,1,0,.5.35.35,0,0,1-.36.28.61.61,0,0,1-.46-.27v.24H8.9V9.27h.45v1.08a.61.61,0,0,1,.46-.27.35.35,0,0,1,.36.28,1.9,1.9,0,0,1,0,.5Zm1.67-.41H11v.44c0,.23.07.34.23.34a.19.19,0,0,0,.2-.18,2.83,2.83,0,0,0,0-.3h.46v.07c0,.14,0,.24,0,.29a.64.64,0,0,1-.1.27.62.62,0,0,1-.54.27.64.64,0,0,1-.54-.25,1,1,0,0,1-.14-.58v-.86a1,1,0,0,1,.14-.58.64.64,0,0,1,.54-.25.62.62,0,0,1,.53.25,1,1,0,0,1,.14.58Zm0,0"/><path id="_Compound_Path_5" data-name="&lt;Compound Path&gt;" class="cls-1" d="M7.63,8.16V6.8l.6-2H7.72L7.38,6.12,7,4.81H6.5l.32.93A8.33,8.33,0,0,1,7.12,6.8V8.16Zm0,0"/><path id="_Compound_Path_6" data-name="&lt;Compound Path&gt;" class="cls-1" d="M8.8,8.19a.62.62,0,0,0,.53-.26,1,1,0,0,0,.14-.59V6.48a1,1,0,0,0-.14-.59.67.67,0,0,0-1.05,0,1,1,0,0,0-.14.59v.87a1,1,0,0,0,.14.59.62.62,0,0,0,.53.26ZM8.59,6.39c0-.23.07-.35.22-.35s.22.12.22.35v1c0,.23-.07.35-.22.35s-.22-.11-.22-.35Zm0,0"/><path id="_Compound_Path_7" data-name="&lt;Compound Path&gt;" class="cls-1" d="M11.12,8.16V5.66h-.45V7.57c-.1.14-.19.21-.29.21s-.1,0-.11-.11a1.05,1.05,0,0,1,0-.18V5.66H9.82v2a1.25,1.25,0,0,0,0,.37.28.28,0,0,0,.29.19.73.73,0,0,0,.52-.31v.27Zm0,0"/></g></g></g></svg>