<svg xmlns="http://www.w3.org/2000/svg" viewBox="0 0 18 18"><defs><style>.cls-1{fill:#4d4d4d;}.cls-2{fill:#c8c6c2;}</style></defs><title>GO_HVR</title><g id="Layer_2" data-name="Layer 2"><g id="artwork"><circle class="cls-1" cx="9" cy="8.95" r="8.5"/><path id="_Compound_Path_" data-name="&lt;Compound Path&gt;" class="cls-1" d="M9,.7A8.3,8.3,0,1,1,.7,9,8.31,8.31,0,0,1,9,.7M9,0a9,9,0,1,0,9,9A9,9,0,0,0,9,0Z"/><g id="_Group_" data-name="&lt;Group&gt;"><path id="_Path_" data-name="&lt;Path&gt;" class="cls-2" d="M11.25,8.52H9.52a2.19,2.19,0,0,1,0,.43,2.15,2.15,0,1,1-.86-1.72L9.92,6a3.88,3.88,0,1,0,1.33,2.51Z"/><rect id="_Rectangle_" data-name="&lt;Rectangle&gt;" class="cls-2" x="12.13" y="8.52" width="3.43" height="0.86"/><rect id="_Rectangle_2" data-name="&lt;Rectangle&gt;" class="cls-2" x="12.13" y="8.52" width="3.43" height="0.86" transform="translate(4.9 22.8) rotate(-90)"/><path id="_Path_2" data-name="&lt;Path&gt;" class="cls-2" d="M10.85,9.38l.43-.43V8.09H7.41V9.81h3.24Z"/></g></g></g></svg>