<svg xmlns="http://www.w3.org/2000/svg" viewBox="0 0 15 15"><defs><style>.a{fill:#919396;}.b,.c{fill:none;}.b{stroke:#919396;stroke-miterlimit:10;stroke-width:0.85px;}</style></defs><title>ic_engine-06</title><path class="a" d="M3.55 11.27l1-1 .18.2-1 1zM10.4 4.5l.2.2 1-1-.2-.2-1 1M3.6 3.63l.22-.2 1 1-.2.22zM10.6 10.3l-.2.2 1 1 .2-.2-1-1M7.4 2h.3v1.43h-.3zM7.4 11.6h.3v1.43h-.3zM11.6 7.4H13v.27h-1.4zM2.1 7.4h1.4v.27H2.1zM8.8 7.2l1.6-2.4L8 6.3z"/><circle class="b" cx="7.5" cy="7.5" r=".9" transform="rotate(-29.7 7.513 7.442)"/><path class="c" d="M0 0h15v15H0z"/><circle class="b" cx="7.5" cy="7.5" r="6.6" transform="rotate(-29.7 7.513 7.442)"/></svg>
