<svg xmlns="http://www.w3.org/2000/svg" xmlns:xlink="http://www.w3.org/1999/xlink" viewBox="0 0 74 73.69"><defs><style>.cls-1{fill:none;}.cls-2{fill:#fff;}.cls-3{fill:#acacaa;}</style><symbol id="info_category" data-name="info category" viewBox="0 0 18 17.93"><rect class="cls-1" width="18" height="17.93"/><circle class="cls-2" cx="9" cy="8.96" r="6.83"/><path class="cls-3" d="M9,16.29A7.33,7.33,0,1,1,16.33,9,7.34,7.34,0,0,1,9,16.29ZM9,2.64A6.33,6.33,0,1,0,15.33,9,6.33,6.33,0,0,0,9,2.64Z"/><path class="cls-3" d="M10.15,11.65a3.74,3.74,0,0,1-2,1.27c-.31,0-.54-.23-.29-1.25l.67-2.83c.06-.29.07-.41,0-.41a2.34,2.34,0,0,0-.75.46l-.16-.31A4.23,4.23,0,0,1,9.68,7.36c.31,0,.36.43.19,1.1l-.73,3c-.07.32,0,.44,0,.44a2.36,2.36,0,0,0,.79-.5Zm.22-6a.83.83,0,0,1-.82.84A.58.58,0,0,1,9,5.83.82.82,0,0,1,9.76,5,.59.59,0,0,1,10.37,5.65Z"/></symbol></defs><title>Asset 1</title><g id="Layer_2" data-name="Layer 2"><g id="artwork"><use id="info_category-3" data-name="info category" width="18" height="17.93" transform="scale(4.11)" xlink:href="#info_category"/></g></g></svg>