<svg xmlns="http://www.w3.org/2000/svg" viewBox="0 0 14 14"><defs><style>.cls-1{fill:#8cc63f;}</style></defs><title>info_icon</title><g id="Layer_2" data-name="Layer 2"><g id="Layer_1-2" data-name="Layer 1"><path class="cls-1" d="M3.49.94A6.86,6.86,0,0,1,7,0a6.86,6.86,0,0,1,3.51.94,6.94,6.94,0,0,1,2.55,2.55A6.86,6.86,0,0,1,14,7a6.86,6.86,0,0,1-.94,3.51,6.94,6.94,0,0,1-2.55,2.55A6.86,6.86,0,0,1,7,14a6.86,6.86,0,0,1-3.51-.94A6.94,6.94,0,0,1,.94,10.51,6.86,6.86,0,0,1,0,7,6.86,6.86,0,0,1,.94,3.49,6.94,6.94,0,0,1,3.49.94ZM4.65,5.83V7H5.83V9.35H4.65v1.17H9.35V9.35H8.17V5.83ZM5.83,3.48V4.65H8.17V3.48Z"/></g></g></svg>