<?xml version="1.0" encoding="utf-8"?>
<!-- Generator: Adobe Illustrator 21.1.0, SVG Export Plug-In . SVG Version: 6.00 Build 0)  -->
<svg version="1.1" id="Layer_1" xmlns="http://www.w3.org/2000/svg" xmlns:xlink="http://www.w3.org/1999/xlink" x="0px" y="0px"
	 viewBox="0 0 18 18" style="enable-background:new 0 0 18 18;" xml:space="preserve">
<style type="text/css">
	.st0{fill:#CCCCCC;}
	.st1{fill:#E6E6E6;}
	.st2{fill:#9E9E9E;}
</style>
<title>ic_18px_jobseeker_gray</title>
<g id="ic_18px_jobseeker_line">
	<path class="st0" d="M11.8,1.5c-2-0.8-4.2-0.7-6.1,0.2S2.3,4.1,1.5,6.1C0.9,7.7,0.8,9.4,1.3,11c0.4,1.3,1.1,2.6,2,3.6
		C4.8,16.1,6.8,17,9,17h0h0c2,0,3.9-0.8,5.4-2.1l0.3-0.2c0.8-0.8,1.4-1.7,1.8-2.8C18,7.7,16,3.1,11.8,1.5z"/>
	<circle class="st1" cx="8.9" cy="6.9" r="3.1"/>
	<path class="st1" d="M14,12.1v2.4c-0.7,0.6-1.5,1.2-2.4,1.5l0,0c-1.8,0.7-3.8,0.7-5.6-0.1l0,0c-0.9-0.4-1.7-1-2.4-1.7v-2.2
		c0-0.8,0.6-1.5,1.3-1.8c2.5-0.8,5.3-0.8,7.8,0C13.5,10.5,14,11.3,14,12.1z"/>
	<path class="st2" d="M11.8,1.5c-2-0.8-4.2-0.7-6.1,0.2S2.3,4.1,1.5,6.1C0.9,7.7,0.8,9.4,1.3,11c0.4,1.3,1.1,2.6,2,3.6
		C4.8,16.1,6.8,17,9,17h0h0c2,0,3.9-0.8,5.4-2.1l0.3-0.2c0.8-0.8,1.4-1.7,1.8-2.8C18,7.7,16,3.1,11.8,1.5z M8.9,9.1
		c-1.2,0-2.1-1-2.1-2.1s1-2.1,2.1-2.1c1.2,0,2.1,1,2.1,2.1S10,9.1,8.9,9.1z M8.9,10.4c1.2,0,2.5,0.2,3.7,0.5
		c0.5,0.2,0.8,0.6,0.8,1.1v2.1c-0.4,0.3-0.9,0.6-1.3,0.8v-2.5h-1v2.9c-1.4,0.4-2.9,0.4-4.3-0.1v-2.8h-1v2.4
		c-0.5-0.3-0.9-0.6-1.3-0.9v-1.9c0-0.5,0.3-0.9,0.8-1.1C6.4,10.6,7.6,10.5,8.9,10.4L8.9,10.4z M15.5,11.5c-0.3,0.9-0.8,1.6-1.5,2.3
		v-1.7c0-0.8-0.5-1.5-1.3-1.8c-0.8-0.2-1.7-0.4-2.5-0.5C11.3,9.3,12,8.2,12,6.9c0-1.7-1.4-3.1-3.1-3.1S5.7,5.2,5.7,6.9
		c0,1.3,0.7,2.3,1.8,2.8C6.7,9.9,5.8,10,5,10.3c-0.8,0.3-1.3,1-1.3,1.8v1.4c-0.7-0.8-1.1-1.7-1.4-2.7C1.8,9.3,1.9,7.9,2.5,6.5
		c0.7-1.7,2-3.1,3.7-3.9C7,2.2,8,2,9,2c0.8,0,1.7,0.2,2.5,0.5C15.1,3.8,16.9,7.9,15.5,11.5z"/>
</g>
</svg>
