<svg xmlns="http://www.w3.org/2000/svg" xmlns:xlink="http://www.w3.org/1999/xlink" viewBox="0 0 74 74.01"><defs><style>.cls-1{fill:#adadab;}.cls-2{fill:none;}</style><symbol id="land" data-name="land" viewBox="0 0 74 74.01"><rect class="cls-1" x="13.25" y="58" width="47.5" height="3"/><rect class="cls-1" x="24.64" y="53.4" width="4.36" height="3.49"/><rect class="cls-1" x="37.42" y="54.31" width="3.22" height="2.58"/><path class="cls-1" d="M43.55,32c-1.2-4.69-3.24-7.56-4.52-7.56-1,0-2.33,1.6-3.47,4.36,1.27,6.5,2.21,14.08,1.88,18.47a6.51,6.51,0,0,1-2.85,5.26,9.13,9.13,0,0,0,4.44.91c3,0,6.36-.67,6.64-4.69S44.74,36.72,43.55,32Z"/><path class="cls-1" d="M26.82,52.25c4,0,8.61-.91,9-6.35s-1.25-16.32-2.87-22.67S28.55,13,26.82,13s-4.5,3.89-6.12,10.23S17.46,40.46,17.84,45.9,22.82,52.25,26.82,52.25Z"/><rect class="cls-2" width="74" height="74.01"/></symbol></defs><title>land</title><g id="Layer_2" data-name="Layer 2"><g id="Layer_1-2" data-name="Layer 1"><use width="74" height="74.01" xlink:href="#land"/></g></g></svg>