<svg xmlns="http://www.w3.org/2000/svg" xmlns:xlink="http://www.w3.org/1999/xlink" viewBox="0 0 74 74.01"><defs><style>.cls-1{fill:#adadab;}.cls-2{fill:none;}</style><symbol id="new_prop" data-name="new prop" viewBox="0 0 74 74.01"><path class="cls-1" d="M46,44.94H41V41.1l-2.08-1.59-.5-.38-.19-.6L38,37.94H34v-5h2.47L36,31.62l-.21-.68H34v-5h5v.43l2-2.6V18.94h5v4l4,0h.68l.54.41.23.17V7h-30V67h30V49.13L46,44.92Zm-5-33h5v5H41Zm-7,0h5v5H34Zm0,7h5v5H34Zm-2,40H27v-5h5Zm0-7H27v-5h5Zm0-7H27v-5h5Zm0-7H27v-5h5Zm0-7H27v-5h5Zm0-7H27v-5h5Zm0-7H27v-5h5Zm7,42H34v-5h5Zm0-7H34v-5h5Zm0-7H34v-5h5Zm7,14H41v-5h5Zm0-7H41v-5h5Z"/><path class="cls-1" d="M50,24.94l-7.48,0-4.61,6,2.17,6.91,18.5,14.13,9.92-13ZM47.15,33a2.22,2.22,0,1,1-.42-3.11A2.22,2.22,0,0,1,47.15,33Z"/><rect class="cls-2" width="74" height="74.01"/></symbol></defs><title>new prop</title><g id="Layer_2" data-name="Layer 2"><g id="Layer_1-2" data-name="Layer 1"><use width="74" height="74.01" xlink:href="#new_prop"/></g></g></svg>