<svg xmlns="http://www.w3.org/2000/svg" viewBox="0 0 17 17"><defs><style>.cls-1{fill:none;}.cls-2{fill:#9e9e9e;}.cls-3{fill:#ccc;}.cls-4{fill:#e6e6e6;}</style></defs><title>private</title><g id="Layer_2" data-name="Layer 2"><g id="Layer_1-2" data-name="Layer 1"><g id="private_new_2" data-name="private new 2"><rect class="cls-1" width="17" height="17"/><path class="cls-2" d="M15.37,8.53v0A6.87,6.87,0,1,0,8.5,15.4,6.88,6.88,0,0,0,15.37,8.5Z"/><path class="cls-3" d="M8.52,2.55A5.94,5.94,0,1,1,2.58,8.5,5.94,5.94,0,0,1,8.52,2.55Z"/><path class="cls-4" d="M10.17,10A2.89,2.89,0,0,1,6.91,10a3.6,3.6,0,0,0-2.17,3.07,5.86,5.86,0,0,0,7.52,0A3.83,3.83,0,0,0,10.17,10Z"/><path class="cls-2" d="M13.07,12.27a4.67,4.67,0,0,0-2.17-3.05,2.93,2.93,0,0,0,.52-1.64v0A2.93,2.93,0,1,0,6.15,9.28a4.58,4.58,0,0,0-2.21,3,6,6,0,0,0,.8.8A3.61,3.61,0,0,1,6.91,10,2.89,2.89,0,0,0,10.17,10a3.84,3.84,0,0,1,2.09,3.13A6,6,0,0,0,13.07,12.27Z"/><path class="cls-4" d="M8.5,9.54a2,2,0,0,1,0-4h0a2,2,0,0,1,0,4Z"/></g></g></g></svg>