<svg xmlns="http://www.w3.org/2000/svg" xmlns:xlink="http://www.w3.org/1999/xlink" viewBox="0 0 74 74.01"><defs><style>.cls-1{fill:#adadab;}.cls-2{fill:none;}</style><symbol id="size" data-name="size" viewBox="0 0 74 74.01"><path class="cls-1" d="M55.67,49.3l-4.24,4.24a.92.92,0,1,1-1.3-1.3L54.38,48,52,45.59,49,48.54a.92.92,0,0,1-1.3-1.3l2.95-2.95-2.41-2.41-2.95,2.95a.92.92,0,0,1-1.3-1.3L47,40.58l-2.41-2.41L41.6,41.12a.92.92,0,0,1-1.3-1.3l2.95-2.95-2.41-2.41-4.24,4.24a.92.92,0,0,1-1.3-1.3l4.24-4.24-2.41-2.41L34.18,33.7a.92.92,0,1,1-1.3-1.3l2.95-2.95L33.42,27,30.47,30a.92.92,0,0,1-1.3-1.3l2.95-2.95-2.41-2.41-2.95,2.95a.92.92,0,0,1-1.3-1.3L28.42,22,26,19.63l-4.24,4.24a.92.92,0,1,1-1.3-1.3l4.24-4.24L21,14.6l-9,9L50.43,62l9-9Z"/><path class="cls-1" d="M27.71,12.57,30.31,19c.19.47.5.47.69,0l.51-1.26a.56.56,0,0,1,1-.2l24,24a.56.56,0,0,1-.2,1L55,43c-.47.19-.47.5,0,.69l6.39,2.6c.47.19.69,0,.5-.5l-2.6-6.39c-.19-.47-.5-.47-.69,0l-.51,1.26a.56.56,0,0,1-1,.2l-24-24a.56.56,0,0,1,.2-1l1.26-.51c.47-.19.47-.5,0-.69l-6.39-2.6C27.75,11.88,27.52,12.11,27.71,12.57Z"/><rect class="cls-2" width="74" height="74.01"/></symbol></defs><title>size</title><g id="Layer_2" data-name="Layer 2"><g id="Layer_1-2" data-name="Layer 1"><use id="size-3" data-name="size" width="74" height="74.01" xlink:href="#size"/></g></g></svg>