<?xml version="1.0" encoding="utf-8"?>
<!-- Generator: Adobe Illustrator 19.1.0, SVG Export Plug-In . SVG Version: 6.00 Build 0)  -->
<svg version="1.1" id="Layer_1" xmlns="http://www.w3.org/2000/svg" xmlns:xlink="http://www.w3.org/1999/xlink" x="0px" y="0px"
	 viewBox="0 0 12 14" style="enable-background:new 0 0 12 14;" xml:space="preserve">
<style type="text/css">
	.st0{opacity:0.7;}
	.st1{opacity:0.85;}
	.st2{opacity:0.7;fill:#FFFFFF;}
</style>
<g>
</g>
<g>
</g>
<g class="st0">
	<polygon class="st0" points="10.7631836,6.5187988 10.7631836,4.25 6,1.5 1.2368164,4.25 1.2368164,9.75 6,12.5 10.7631836,9.75 
		10.7631836,6.69138 	"/>
</g>
<g class="st1">
	<path class="st2" d="M6,1.4999962l4.7631836,2.75V6.518795v0.1725922v3.058609L6,12.4999962l-4.7631836-2.75v-5.5L6,1.4999962
		 M6,0.3453026L5.5,0.6339684l-4.7631836,2.75l-0.5,0.288681v0.5773468v5.5v0.5773468l0.5,0.288681L5.5,13.366024L6,13.6546898
		l0.5-0.2886658l4.7631836-2.75l0.5-0.288681V9.7499962v-3.058609V6.518795V4.2499962V3.6726494l-0.5-0.288681L6.5,0.6339684
		L6,0.3453026L6,0.3453026z"/>
</g>
</svg>
