<?xml version="1.0" encoding="utf-8"?>
<!-- Generator: Adobe Illustrator 19.1.0, SVG Export Plug-In . SVG Version: 6.00 Build 0)  -->
<svg version="1.1" id="Layer_1" xmlns="http://www.w3.org/2000/svg" xmlns:xlink="http://www.w3.org/1999/xlink" x="0px" y="0px"
	 viewBox="0 0 14 14" style="enable-background:new 0 0 14 14;" xml:space="preserve">
<style type="text/css">
	.st0{fill:#929497;}
	.st1{fill:#E1E1E1;}
	.st2{opacity:0.7;}
	.st3{fill:#A5A4A4;}
	.st4{fill:#0093CD;}
	.st5{fill:#FFFFFF;}
	.st6{fill:#919396;}
</style>
<g>
	<circle class="st4" cx="7" cy="7" r="6.5"/>
	<path class="st5" d="M7,13.8c-3.7,0-6.8-3.1-6.8-6.8S3.3,0.2,7,0.2s6.8,3.1,6.8,6.8S10.7,13.8,7,13.8z M7,0.8
		C3.6,0.8,0.8,3.6,0.8,7s2.8,6.2,6.2,6.2s6.2-2.8,6.2-6.2S10.4,0.8,7,0.8z"/>
	<polygon class="st5" points="11.4,5.2 10,3.8 5.6,8.2 3.5,6.1 2.1,7.5 5.6,11 7,9.6 7,9.6 	"/>
</g>
</svg>
